<svg xmlns="http://www.w3.org/2000/svg" xmlns:xlink="http://www.w3.org/1999/xlink" width="150" height="60" viewBox="0 0 500 48.062">
  <defs>
    <clipPath id="clip-path">
      <rect id="Retângulo_8312" data-name="Retângulo 8312" width="500" height="48.062" fill="none"/>
    </clipPath>
  </defs>
  <g id="aguiabranca" transform="translate(0 0)">
    <path id="Caminho_23216" data-name="Caminho 23216" d="M32.313,16.782V30.957H24ZM30.125.895,0,47.332H14.387l4.6-7.838H32.25l.05,7.838H43.425L43.338.895Z" transform="translate(0 -0.119)" fill="#2673ba"/>
    <path id="Caminho_23217" data-name="Caminho 23217" d="M185.814,16.782V30.957H177.5ZM183.64.895,164.865,29.836V1.094h-11.35V47.27h.041l-.041.062H167.9l4.6-7.838h13.263l.049,7.838H196.94L196.852.895Z" transform="translate(-20.49 -0.119)" fill="#2673ba"/>
    <g id="Grupo_15642" data-name="Grupo 15642" transform="translate(0 0)">
      <g id="Grupo_15641" data-name="Grupo 15641" clip-path="url(#clip-path)">
        <path id="Caminho_23218" data-name="Caminho 23218" d="M297.091.894,273.811,36.78l-3.47-4.911a27.215,27.215,0,0,0,3.85-2.375c3.963-3.574,4.95-6.55,4.95-12,0-9.612-4.737-16.525-20.013-16.525H247.553v46.35H258.84V33.931L266.8,47.269l.025-.012h.186l-.049.075h14.387l4.6-7.837h13.262l.05,7.837H310.39L310.3.894Zm-36,22.025h-2.25V11.981h2.25c5.162,0,6.975,1.188,6.975,5.513s-1.75,5.425-6.975,5.425m38.187,8.037h-8.313l8.313-14.175Z" transform="translate(-33.041 -0.12)" fill="#2673ba"/>
        <path id="Caminho_23219" data-name="Caminho 23219" d="M73.211,21.491v8.425H86.924c-1.451,4.212-5.95,7.074-10.725,7.074-7.813,0-12.75-5.837-12.75-12.813A12.465,12.465,0,0,1,76.312,11.366a10.843,10.843,0,0,1,9.825,5.788L99.224,17.1A23.594,23.594,0,0,0,76.3.029a23.836,23.836,0,0,0-24.05,23.987c0,12.875,9.387,24.05,24.05,24.05a23.712,23.712,0,0,0,23.713-26.575Z" transform="translate(-6.974 -0.004)" fill="#2673ba"/>
        <path id="Caminho_23220" data-name="Caminho 23220" d="M132.808,30.147c0,3.875-1.35,7.025-5.725,7.025s-5.725-3.15-5.725-7.025V1.1h-11.35V29.746c0,11.125,6.513,18.376,17.075,18.376s17.075-7.2,17.075-18.376V1.1h-11.35Z" transform="translate(-14.683 -0.147)" fill="#2673ba"/>
        <path id="Caminho_23221" data-name="Caminho 23221" d="M235.153,22.507a9.84,9.84,0,0,0,4.275-8.6c0-8.537-5.45-12.637-16.463-12.637H210.09V47.556h13.038c12.587,0,18.425-5.663,18.425-14.825,0-4.663-2.35-8.538-6.4-10.225M220.715,10.819h2.475c3.6,0,5.675,1.062,5.675,4.438,0,3.087-2.137,4.212-5.675,4.212h-2.475Zm2.087,26.45h-2.087V27.557h2.475c4.438,0,6.912,1.287,6.912,4.937s-2.475,4.775-7.3,4.775" transform="translate(-28.041 -0.17)" fill="#2673ba"/>
        <path id="Caminho_23222" data-name="Caminho 23222" d="M348.3,26.622,334.816,1.01h-11.4V47.3h11.35V21.459L348.416,47.3h11.237V1.01H348.3Z" transform="translate(-43.166 -0.135)" fill="#2673ba"/>
        <path id="Caminho_23223" data-name="Caminho 23223" d="M436.031,1.587H422.818l-21.2,32.676c-1.436,1.51-3.532,2.474-8.927,2.474a12.7,12.7,0,0,1,0-25.4,12.507,12.507,0,0,1,12.387,9.688l7.225-10.975a24.071,24.071,0,0,0-43.638,14,24.124,24.124,0,0,0,24.038,23.988c.452,0,.9-.016,1.348-.041,5.334-.2,11.485-1.7,16.5-7.809h14.387l.05,7.837h42.8c7.963,0,15.95-5.163,20.3-14.437h-52l0-1.562h61.9c7.963,0,15.95-5.163,20.3-14.438H436.061l0-1.562h92.848c7.962,0,15.95-5.162,20.3-14.437ZM424.993,31.65h-8.313l8.313-14.175Z" transform="translate(-49.206 0)" fill="#2673ba"/>
      </g>
    </g>
  </g>
</svg>
