<svg xmlns="http://www.w3.org/2000/svg" width="150" height="60" viewBox="0 0 499.999 60.349"><g transform="translate(-29.356 -79.221)"><path d="M29.356,136.705c2.065-5.771,3.272-11.786,4.926-17.673.428-1.523,1.028-1.927,2.529-1.908,6.338.082,12.678.008,19.017.057,1.258.01,1.851-.236,2.2-1.645,1.35-5.476,3.025-10.873,4.332-16.357.469-1.971,1.317-2.654,3.207-2.368a14.13,14.13,0,0,0,1.75.016c5.959.144,9.445,4.7,7.978,10.52a12.711,12.711,0,0,1-10.277,9.968c4.686,3.5,5.958,6.679,4.513,11.219a13.247,13.247,0,0,1-12.435,9.45c-8.34.062-16.682.009-25.023.025-.906,0-1.811.129-2.716.2Z" transform="translate(0 -4.869)" fill="#100f0e"/><path d="M49.713,79.221c.29.822,1.133.524,1.692.8a5.961,5.961,0,0,1,3.535,5.092,5.7,5.7,0,0,1-2.573,5.375c-.586.4-1.226.729-2.482,1.465,2.992,0,5.282-.009,7.571,0,1.2.007,1.437-1.007,1.845-1.772.489-.915.959-1.1,1.962-.607,1.143.56.985,1.195.412,1.933-1,1.292-.191,1.918.816,2.533.783.477,1.676.851.755,2.063-.768,1.013-1.424.914-2.248.179s-1.53-.87-2.162.3c-.448.833-.555,2.261-2.248,1.385-1.634-.846-.38-1.81-.2-2.7-3.351-.907-3.384-.888-4.256,2.3-.681,2.49-1.225,5.028-2.088,7.452-.709,1.991.043,2.281,1.768,2.189,1.915-.1,3.839-.064,5.756,0,.61.021,1.788-.455,1.572.842-.152.914.008,2.256-1.688,2.243-6.5-.046-13.005-.019-19.754-.019,1.266-4.751,2.461-9.315,3.713-13.862.262-.952.431-1.643-.932-1.594-.729.027-1.6.159-1.326-1.115.206-.95.4-1.783,1.664-1.757,2.162.043,4.325.012,6.442.012.152-.636-.239-.633-.507-.774-2.789-1.455-4.146-3.548-3.824-6.132a5.772,5.772,0,0,1,4.788-5.378c.189-.043.328-.306.49-.467Z" transform="translate(-2.318 0)" fill="#e8681c"/><path d="M169.479,140.02c-4.92,0-9.841-.037-14.76.026-1.242.016-1.59-.256-1.26-1.524q4.239-16.257,8.367-32.541c.269-1.062.768-1.242,1.715-1.239,8.422.029,16.846-.031,25.268.048,3.279.031,5.334,2.6,4.721,5.914-.527,2.849-1.338,5.652-2.13,8.444-.458,1.616-2.363,2.23-2.991,3.444-.454.879,1.447,2.483,1.082,4.029-.974,4.12-2.074,8.208-3.092,12.318-.313,1.261-1.251,1.083-2.158,1.082Q176.859,140.015,169.479,140.02Zm1.425-5.063c1.582,0,3.164-.036,4.744.014.836.027,1.41-.11,1.633-1.053.571-2.417,1.19-4.824,1.822-7.226.355-1.35-.185-1.823-1.5-1.806-3,.038-5.994.043-8.99-.005-1.017-.017-1.419.316-1.639,1.353-.5,2.347-1.132,4.669-1.829,6.966-.467,1.538.1,1.875,1.518,1.777S169.489,134.957,170.9,134.957Zm-2.3-15.078c3.767,0,7.268-.034,10.767.019a1.7,1.7,0,0,0,1.9-1.525c.556-2.256,1.175-4.5,1.739-6.749.314-1.253-.116-1.85-1.508-1.821q-4.5.093-9.009-.005c-1.041-.024-1.4.35-1.626,1.337C170.213,113.961,169.423,116.754,168.6,119.879Z" transform="translate(-34.438 -7.089)" fill="#100f0e"/><path d="M405.5,151.076c2.573-9.652,5.1-19.092,7.6-28.537.269-1.016.755-1.563,1.908-1.426,3.077.365,6.241.327,9.272.39s6.249-.275,9.379-.344c5.3-.116,7.192,2.422,5.854,7.607-1.036,4.015-2.084,8.028-3.18,12.027-.78,2.848-2.012,3.747-5.033,3.764-3.417.019-7.01.67-10.205-.173-3.7-.976-3.986.993-4.276,3.36-.339,2.765-1.642,3.736-4.419,3.387A57.054,57.054,0,0,0,405.5,151.076ZM423.046,139.5a3.392,3.392,0,0,0,3.775-2.315c.849-2.591,1.507-5.251,2.139-7.906a2.224,2.224,0,0,0-1.632-2.911,4.13,4.13,0,0,0-5.529,2.782c-.716,2.291-1.337,4.619-1.854,6.963S420.376,139.49,423.046,139.5Z" transform="translate(-104.478 -11.63)" fill="#100f0e"/><path d="M353.624,119.779c-1.106,5.017-1.106,5.017-5.772,5.017-2.754,0-5.508.031-8.261-.016-1.018-.017-1.725.111-2,1.3-.568,2.422-1.251,4.818-1.923,7.215-.325,1.158-.069,1.611,1.252,1.587,4.164-.075,8.331-.027,12.461-.027.082.287.194.457.16.591-1.142,4.473-1.144,4.473-5.728,4.473H323.547c2.463-9.154,4.869-18.1,7.277-27.044.022-.08.058-.157.081-.236.776-2.613.5-6.3,2.487-7.577,1.962-1.265,5.321-.388,8.068-.4,4.839-.022,9.68.038,14.518-.032,1.529-.022,1.671.342,1.4,1.855-.462,2.606-1.567,3.555-4.276,3.3-3.06-.288-6.172.014-9.255-.1-1.463-.056-2.037.434-2.322,1.851a53.614,53.614,0,0,1-1.752,6.493c-.532,1.582.043,1.8,1.45,1.775C345.306,119.734,349.388,119.779,353.624,119.779Z" transform="translate(-81.714 -6.988)" fill="#100f0e"/><path d="M204.225,144.517l5.337-19.633a4.692,4.692,0,0,1,4.934-3.74c7.418-.034,14.836.011,22.254-.035,1.32-.009,1.822.292,1.435,1.7-1.674,6.073-3.248,12.174-4.958,18.237a4.276,4.276,0,0,1-4.114,3.444C220.878,144.568,212.641,144.517,204.225,144.517Zm15.824-5.015c2.58.765,3.815-.67,4.207-3.48a39.356,39.356,0,0,1,1.246-4.8c1.4-5.143,1.4-5.093-3.914-5.025-1.477.019-2.248.412-2.583,1.952-.564,2.588-1.351,5.127-2.055,7.684C215.935,139.5,215.93,139.5,220.049,139.5Z" transform="translate(-48.571 -11.634)" fill="#100f0e"/><path d="M690.777,121.133c2.394.176,5.375.865,7.7.568,2.559-.326,5.156-.332,7.71-.511,3.331-.233,3.357-.053,2.53,3.038-1.651,6.169-3.346,12.326-4.958,18.5-.337,1.294-.8,1.9-2.315,1.88-6.414-.1-12.83-.015-19.245-.053-4.167-.025-6.25-2.746-5.209-6.739,1.046-4.012,2.133-8.013,3.2-12.02.946-3.556,2.328-4.632,6.029-4.666C687.635,121.122,689.052,121.133,690.777,121.133Zm.346,18.372c2.206.386,3.412-.87,3.952-3.155.572-2.424,1.2-4.84,1.933-7.22a2.086,2.086,0,0,0-.62-2.464c-1.9-1.526-5.939-.224-6.622,2.123-.674,2.311-1.267,4.645-1.878,6.975C687.107,138.741,687.723,139.513,691.123,139.5Z" transform="translate(-179.811 -11.637)" fill="#100f0e"/><path d="M264.748,121.111c2.354.218,5.309.781,7.708.535,2.884-.295,5.814-.14,8.686-.54,2.195-.306,2.455.478,1.861,2.5-1.82,6.207-3.533,12.452-5.027,18.745-.464,1.954-1.333,2.37-3.056,2.207a68.394,68.394,0,0,0-8.473-.332c-3.194.1-6.443.209-9.661.282-4.781.11-6.759-2.567-5.542-7.244.982-3.771,2.01-7.53,3.028-11.292,1.044-3.862,2.337-4.845,6.369-4.864C261.892,121.106,263.143,121.111,264.748,121.111Zm.593,18.372c2.137.437,3.331-.848,3.879-3.137.579-2.417,1.263-4.809,1.92-7.206a2.162,2.162,0,0,0-.612-2.495c-1.917-1.508-5.937-.245-6.627,2.119-.675,2.307-1.218,4.651-1.837,6.975C261.262,138.752,261.828,139.49,265.341,139.484Z" transform="translate(-61.534 -11.616)" fill="#100f0e"/><path d="M464.359,139.513h17.312a4.867,4.867,0,0,1-.007.91c-.948,4.145-.951,4.145-5.223,4.145-7.1,0-14.2-.123-21.29.065-2.517.067-2.63-.676-2.024-2.751,1.607-5.5,3.011-11.055,4.527-16.58.772-2.816,2.335-4.133,5.171-4.153,7.43-.052,14.862,0,22.293-.035,1.307-.006,1.759.162,1.291,1.676-1.078,3.486-1.956,7.038-2.812,10.587-.363,1.507-.979,2.152-2.679,2.086-4-.155-8.014-.05-12.022-.05C465.16,135.414,465.16,135.414,464.359,139.513Zm2.26-9.164h6.264c1.942,0,1.291-1.753,1.775-2.713.2-.4.594-1.33-.335-1.354-2.051-.056-4.214-.527-6.132.228C466.877,127.027,467.306,128.834,466.619,130.349Z" transform="translate(-117.621 -11.636)" fill="#100f0e"/><path d="M557.379,121.022c2.242.261,4.979-.6,7.482.822.145.083.335.464.568.053.894-1.574,2.411-.837,3.62-.824,2.286.024,5.389-1.07,6.6.482.859,1.1-.7,4.142-1.266,6.294-1.268,4.812-2.635,9.6-3.862,14.42-.392,1.543-.877,2.3-2.758,2.253-6.232-.168-12.47-.043-18.705-.07-4.458-.02-6.461-2.706-5.3-7.061,1.026-3.85,2.076-7.692,3.119-11.536,1.053-3.876,2.305-4.824,6.367-4.832C554.5,121.02,555.75,121.022,557.379,121.022Zm.211,18.373c2.406-.009,3.332-.472,3.868-2.274.823-2.767,1.469-5.586,2.278-8.356a1.873,1.873,0,0,0-.7-2.183c-1.908-1.52-5.867-.267-6.549,2.069-.67,2.3-1.3,4.6-1.918,6.913C553.747,138.626,554.373,139.408,557.59,139.4Z" transform="translate(-142.79 -11.527)" fill="#100f0e"/><path d="M377.733,130.35c4.021,0,7.756-.021,11.492.006,3.845.028,5.544,2.105,4.659,5.78-.66,2.742-.684,6.258-2.427,7.943-1.7,1.641-5.254.434-7.992.467-5.929.069-11.86-.035-17.788.056-1.773.027-1.93-.342-1.606-2.1.458-2.485,1.516-3.169,3.947-3.052,4.333.209,8.686-.051,13.024.1,2.462.086,2.066-1.786,2.282-3.033.326-1.879-1.334-1.039-2.066-1.055q-6.512-.138-13.027-.018c-1.6.03-2.293-.16-1.681-2.037.927-2.841,1.56-5.777,2.323-8.671a4.282,4.282,0,0,1,4.461-3.6c7.683-.009,15.367.015,23.05-.023,1.245-.007,1.488.207,1.17,1.541-1.443,6.065-1.382,6.079-7.564,6.078-1,0-2,0-3.007,0-.4,0-1.052.1-1.1-.326-.542-4.911-4.116-1.575-6.086-1.952C378.028,126.113,378.585,128.836,377.733,130.35Z" transform="translate(-92.932 -11.635)" fill="#100f0e"/><path d="M603.426,144.566c1.315-4.853,2.6-9.471,3.806-14.111.392-1.511,1.4-3.34-1.065-4.116-2.794-.88-5.122.151-5.8,2.586-1.207,4.314-2.418,8.63-3.465,12.984-.465,1.935-1.149,2.985-3.405,2.71a48.473,48.473,0,0,0-6.25-.048c-.948.009-1.544.043-1.153-1.343q2.91-10.3,5.554-20.671c.342-1.353,1.021-1.54,2.092-1.421a78.937,78.937,0,0,0,9.13.386c3.4-.027,6.926-.263,10.391-.358,4.725-.129,6.32,2.039,5.1,6.593-1.327,4.968-2.695,9.926-3.982,14.9-.357,1.379-.919,2.042-2.512,1.948C609.134,144.448,606.384,144.566,603.426,144.566Z" transform="translate(-154.604 -11.634)" fill="#100f0e"/><path d="M651.206,131.949a6.872,6.872,0,0,0,.47-1.989c-.15-1.254,2.17-2.99-.017-3.623-4.012-1.162-6.247-.084-6.939,2.51-.75,2.807-1.383,5.652-2.29,8.408-.656,1.993-.058,2.345,1.849,2.29,4.5-.13,9.009.021,13.512-.077,1.5-.033,1.585.488,1.359,1.744-.431,2.4-1.268,3.57-4.169,3.453-7.412-.3-14.845-.1-22.269-.1h-2.571c1.772-6.69,3.44-13.108,5.184-19.506a4.905,4.905,0,0,1,5.12-3.924c7.425-.016,14.849.016,22.273-.027,1.361-.007,1.779.311,1.338,1.723-.766,2.453-1.389,4.952-2,7.448-.286,1.161-.712,1.78-2.115,1.71C657.112,131.85,654.276,131.949,651.206,131.949Z" transform="translate(-166.873 -11.635)" fill="#100f0e"/><path d="M111.69,109.459c-4.747,0-9.5-.045-14.242.027-1.469.022-2.127-.155-1.6-1.873.954-3.084,1.748-6.22,2.531-9.353a1.651,1.651,0,0,1,1.921-1.433q14.617.053,29.233,0c1.2,0,1.7.283,1.343,1.566-.89,3.194-1.762,6.395-2.561,9.613-.3,1.217-.979,1.488-2.137,1.474C121.351,109.427,116.521,109.459,111.69,109.459Z" transform="translate(-18.419 -4.89)" fill="#100f0e"/><path d="M104.3,136.389c4.84,0,9.679.04,14.518-.024,1.507-.02,1.857.292,1.354,1.842-1,3.077-1.813,6.219-2.552,9.37-.271,1.155-.79,1.443-1.868,1.439q-14.644-.04-29.287.006c-1.425.006-1.665-.336-1.229-1.726.943-3,1.748-6.059,2.437-9.131.319-1.424.943-1.834,2.36-1.808C94.785,136.442,99.542,136.389,104.3,136.389Z" transform="translate(-15.466 -15.869)" fill="#100f0e"/><path d="M513.227,121.249c.31.521.659.446,1.228.308a31.168,31.168,0,0,1,10.919-.237,5.016,5.016,0,0,1,4.193,5.618,8.654,8.654,0,0,1-.4,1.691c-.567,1.89-.378,5.007-1.836,5.419-2.864.809-6.1.3-9.188.3-.776,0-.654-.629-.559-1.087a23.61,23.61,0,0,1,.687-2.646c.624-1.892.534-3.521-1.65-4.253-2.483-.831-4.435.108-5.1,2.451-1.33,4.712-2.667,9.425-3.835,14.177-.314,1.275-.83,1.589-2.011,1.556q-3.627-.1-7.259,0c-1.294.033-1.494-.3-1.136-1.587,1.87-6.717,3.605-13.471,5.424-20.2.2-.742.285-1.736,1.457-1.676Z" transform="translate(-129.927 -11.592)" fill="#100f0e"/><path d="M90.058,129.212c1.075-4.038,2.11-7.863,3.1-11.7.19-.734.614-.843,1.265-.842,10.41.013,20.819.009,31.386.009-1.018,3.888-2,7.573-2.942,11.266-.209.817-.53,1.287-1.5,1.284C111.031,129.2,100.694,129.212,90.058,129.212Z" transform="translate(-16.86 -10.402)" fill="#100f0e"/><path d="M645.809,157.2c-1.915,0-3.831.045-5.743-.025-.59-.021-1.673.529-1.587-.826.053-.828.14-1.853,1.229-1.868,4.494-.064,8.989-.036,13.483-.028.644,0,.909.4.676.981-.3.761-.143,1.862-1.566,1.794C650.141,157.119,647.974,157.194,645.809,157.2Z" transform="translate(-169.187 -20.891)" fill="#100f0e"/><path d="M515.934,121.264l-9.061-.173C509.9,121.127,512.927,120.791,515.934,121.264Z" transform="translate(-132.634 -11.607)" fill="#e8681c"/></g></svg>