<svg xmlns="http://www.w3.org/2000/svg" width="150" height="60" viewBox="0 0 493.812 61.657"><g transform="translate(-59.181 -81.505)"><path d="M329.608,87.793c-.342.015-.684.043-1.026.043q-80.622,0-161.243.025c-.917,0-1.136-.226-1.1-1.118.068-1.743,0-3.492-.019-5.238H329.575Q329.592,84.649,329.608,87.793Z" transform="translate(-23.488)" fill="#e71c24"/><path d="M375.533,87.793q-.016-3.145-.034-6.288H538.855c.007,1.9,0,3.807.031,5.709.008.51-.12.767-.672.7a6.3,6.3,0,0,0-.749,0q-80.324,0-160.649-.006A2.446,2.446,0,0,1,375.533,87.793Z" transform="translate(-69.413)" fill="#007cc6"/><path d="M682.971,150.085q-15.255,0-30.511.02c-.781,0-.962-.191-.961-.967q.041-17.5,0-35c0-.772.176-.973.961-.971q15.256.043,30.511.017v4.5a.764.764,0,0,0-.181-.044q-11.088,0-22.174-.018c-.564,0-.662.208-.659.71q.027,5.24,0,10.479c0,.5.087.708.653.706q11.18-.037,22.361-.031v4.5c-7.423-.006-14.847,0-22.271-.034-.663,0-.749.242-.745.807.022,3.338.038,6.676-.009,10.013-.012.777.252.906.949.9,7.08-.023,14.162-.013,21.243-.017.277,0,.555-.038.833-.059Z" transform="translate(-129.978 -6.947)" fill="#121212"/><path d="M418.214,141.108v-1.026c0-8.74.016-17.48-.023-26.219,0-.9.276-1.082,1.1-1.054,1.715.059,3.434.044,5.149,0,.628-.015.845.125.845.808q-.03,17.792.006,35.583c0,.635-.194.769-.788.764-3.089-.025-6.18-.029-9.27.013a1.48,1.48,0,0,1-1.415-.789q-8.956-13.4-17.954-26.776c-.2-.3-.414-.586-.778-1.1v1.229q0,13.11,0,26.22c0,1.407.2,1.2-1.258,1.218-1.592.016-3.185-.027-4.775.035-.731.029-.921-.174-.92-.911.009-8.646-.019-17.293-.037-25.938-.007-3.121.012-6.244-.043-9.364-.013-.759.222-.916.934-.907q4.541.059,9.083,0a1.33,1.33,0,0,1,1.272.7q9.081,13.432,18.2,26.84l.5.738Z" transform="translate(-72.166 -6.869)" fill="#121212"/><path d="M524.809,121.462c0,9.222-.01,18.335.016,27.449,0,.809-.137,1.141-1.046,1.1-1.65-.08-3.309-.055-4.96.01-.774.03-.978-.181-.977-.966q.028-15.964-.009-31.929c0-1.186.027-2.373-.015-3.558-.019-.549.172-.666.686-.663,3.183.022,6.367.029,9.55-.005.552-.006.752.29,1,.656q9.176,13.535,18.362,27.064c.137.2.28.4.572.818v-1.177c0-8.8.016-17.6-.023-26.4,0-.9.276-1.072,1.09-1.044,1.714.058,3.433.042,5.149,0,.625-.014.858.122.857.811q-.019,17.744.03,35.487c0,.741-.244.865-.908.858-3.059-.03-6.118-.032-9.176.012a1.475,1.475,0,0,1-1.42-.767q-9.01-13.475-18.063-26.923A1.887,1.887,0,0,0,524.809,121.462Z" transform="translate(-100.643 -6.869)" fill="#121212"/><path d="M603.659,150.084c-5.057,0-10.114.024-15.171-.012-2.01-.014-1.926.085-2.007-1.953-.066-1.652,0-3.308-.035-4.962-.011-.529.065-.763.692-.754q4.026.06,8.053,0c.58-.007.764.165.755.726-.051,2.88,1.618,3.536,3.945,3.579,2.621.048,5.244.024,7.866,0a7.441,7.441,0,0,0,1.757-.226,2.562,2.562,0,0,0,2.08-2.345,67.236,67.236,0,0,0,.144-7.576,2.589,2.589,0,0,0-1.286-2.068,5.444,5.444,0,0,0-3.21-1.087c-6.149.01-12.3.03-18.448-.031-2.47-.024-2.294.136-2.315-2.3q-.068-7.819,0-15.639c.025-2.342-.105-2.2,2.221-2.214q14.983-.063,29.966,0c2.342.01,2.122-.142,2.226,2.214.069,1.558,0,3.121.036,4.681.015.575-.1.8-.746.795q-3.885-.062-7.772,0c-.6.009-.7-.186-.709-.737-.034-2.229-.724-3.153-2.931-3.3a58.09,58.09,0,0,0-10.369.055,2.608,2.608,0,0,0-2.373,2.7c-.06,2.463-.076,4.93-.029,7.393a2.724,2.724,0,0,0,2.545,2.85,14.905,14.905,0,0,0,2.516.183q8.943-.007,17.886.006c1.845,0,1.946.085,1.952,1.919.016,5.369.052,10.739-.017,16.107-.027,2.1.06,1.974-2.057,1.99C613.773,150.11,608.716,150.084,603.659,150.084Z" transform="translate(-115.702 -6.953)" fill="#121212"/><path d="M321.542,136.763l6.97,13.323c-2.96,0-5.782,0-8.6,0-.272,0-.363-.153-.465-.361q-3.977-8.117-7.961-16.232c-.023-.046.01-.119.027-.26,1.51,0,3.029-.008,4.548,0a7.834,7.834,0,0,0,1.67-.185,2.665,2.665,0,0,0,2.362-2.416,58.3,58.3,0,0,0,.059-10.276c-.152-2.14-1.187-2.943-3.538-3.021-3.243-.109-6.492-.035-9.738-.052-.359,0-.518.1-.48.473a6.314,6.314,0,0,1,0,.655q0,15.357.019,30.714c0,.754-.138,1-.944.976-2.246-.065-4.5-.052-6.742-.005-.674.014-.8-.192-.8-.829q.03-17.6,0-35.209c0-.655.091-.9.841-.9,8.365.032,16.731.02,25.1.022a17.473,17.473,0,0,1,1.955.147c.918.1,1.246.6,1.393,1.453a19.772,19.772,0,0,1,.19,3.357c0,5.15.025,10.3-.044,15.45-.043,3.177-.368,2.933-2.84,3.033C323.559,136.672,322.6,136.716,321.542,136.763Z" transform="translate(-52.39 -6.949)" fill="#121212"/><path d="M59.182,131.692q0-7.116,0-14.232a23.576,23.576,0,0,1,.166-2.514,1.468,1.468,0,0,1,1.478-1.483c.309-.03.623-.027.934-.027l27.058-.007c.125,0,.25,0,.375,0,1.7.02,2.011.256,2.285,1.889a12.2,12.2,0,0,1,.124,1.956c.018,2.84,0,5.68.037,8.52.009.621-.17.774-.773.763-2.059-.037-4.12-.04-6.179,0-.631.012-.866-.112-.837-.8a27.635,27.635,0,0,0-.107-4.112c-.239-2.248-1.321-3.4-3.58-3.532-3.023-.176-6.052-.124-9.077-.028-2.8.089-3.927,1.24-4.036,4.053-.072,1.839-.053,3.682-.055,5.522q-.006,6.086.012,12.171c0,.437.01.874.026,1.311.108,2.929,1.13,4.155,4.055,4.263a61.779,61.779,0,0,0,9.44-.114c2-.233,2.982-1.328,3.207-3.378a28.349,28.349,0,0,0,.12-4.2c-.025-.633.192-.772.786-.762,2.09.034,4.181.026,6.273,0,.486-.005.717.06.71.64-.04,3.245-.03,6.49-.057,9.736a11.243,11.243,0,0,1-.18,1.387,1.31,1.31,0,0,1-1.225,1.2,9.121,9.121,0,0,1-1.307.077Q75.279,150,61.7,150c-1.937,0-2.111-.14-2.41-2.025a12.171,12.171,0,0,1-.108-1.864Q59.175,138.9,59.182,131.692Z" transform="translate(0 -7.005)" fill="#121212"/><path d="M456.645,131.587c0-5.838.016-11.676-.02-17.513,0-.759.221-.908.933-.906q14.844.035,29.689,0c.689,0,.925.141.871.859a19.951,19.951,0,0,0,0,2.808c.046.688-.213.809-.844.807-7.056-.022-14.111,0-21.166-.034-.817,0-1.044.181-1.03,1.019.054,3.339.045,6.681,0,10.021-.009.717.193.87.884.867,7.024-.027,14.049.005,21.073-.042.944-.006,1.165.269,1.081,1.137a12.286,12.286,0,0,0,0,2.431c.087.84-.266.937-.994.934-6.993-.027-13.986,0-20.979-.037-.849,0-1.084.2-1.069,1.064.055,3.246.046,6.493,0,9.74-.009.742.2.93.93.927,7.055-.028,14.111-.007,21.166-.031.7,0,1.006.119.942.9a19.365,19.365,0,0,0,0,2.808c.041.639-.192.756-.78.753-6.119-.02-12.238-.012-18.356-.012-3.808,0-7.617-.019-11.426.017-.717.006-.932-.155-.927-.908C456.661,143.326,456.645,137.456,456.645,131.587Z" transform="translate(-87.215 -6.948)" fill="#121212"/><path d="M119.877,149.894c1.215-3.487,2.4-6.882,3.584-10.276q4.483-12.836,8.954-25.677a.91.91,0,0,1,1.03-.756q5.992.042,11.984,0a.8.8,0,0,1,.917.655q6.193,17.812,12.423,35.611a4.488,4.488,0,0,1,.1.44c-2.913,0-5.774,0-8.634,0-.5,0-.466-.413-.56-.713Q146.4,138.79,143.128,128.4c-.858-2.724-1.766-5.433-2.552-8.179-.239-.834-.752-.631-1.275-.672s-.876.019-1.08.672c-2.968,9.545-5.986,19.075-8.951,28.621-.255.823-.579,1.106-1.463,1.082C125.2,149.847,122.582,149.894,119.877,149.894Z" transform="translate(-13.319 -6.952)" fill="#121212"/><path d="M229.084,149.867c.892-2.557,1.767-5.071,2.645-7.585q4.944-14.155,9.876-28.316a.961.961,0,0,1,1.106-.783c3.964.034,7.927.027,11.892.005a.8.8,0,0,1,.934.631q6.211,17.858,12.462,35.7a2.162,2.162,0,0,1,.045.373h-7c-1.962,0-1.957,0-2.537-1.848q-4.34-13.818-8.667-27.641a1.046,1.046,0,0,0-1.234-.884c-.671.016-1.008.124-1.24.86-3,9.57-6.049,19.124-9.06,28.69-.191.607-.429.824-1.081.813C234.542,149.843,231.859,149.867,229.084,149.867Z" transform="translate(-37.283 -6.951)" fill="#121212"/><path d="M194.313,113.246c5.4,0,10.8.023,16.2-.023.859-.008,1.038.24,1,1.037-.066,1.432-.054,2.872,0,4.306.023.643-.133.834-.806.827-3.588-.037-7.178.006-10.767-.036-.776-.009-1.033.119-1.03.985.039,9.519.024,19.039.024,28.558,0,1.2,0,1.2-1.244,1.2-2.122,0-4.245-.038-6.366.021-.735.02-.848-.215-.846-.883.022-9.613,0-19.227.038-28.839,0-.886-.259-1.05-1.076-1.04-3.87.042-7.74,0-11.61.035-.665.006-.838-.171-.814-.824.052-1.465.055-2.935,0-4.4-.027-.723.157-.945.915-.941C183.389,113.263,188.851,113.246,194.313,113.246Z" transform="translate(-25.856 -6.96)" fill="#121212"/><path d="M356.6,131.129c0-5.929.013-11.858-.016-17.787,0-.72.159-.953.916-.935,2.214.055,4.431.046,6.646,0,.646-.012.767.2.767.795q-.022,17.974,0,35.948c0,.6-.139.795-.77.783q-3.369-.062-6.739,0c-.667.012-.82-.187-.817-.832C356.612,143.112,356.6,137.12,356.6,131.129Z" transform="translate(-65.262 -6.781)" fill="#121212"/></g></svg>