<svg xmlns="http://www.w3.org/2000/svg" width="150" height="60" viewBox="0 0 499.327 156"><g transform="translate(-149.974 -51.545)"><rect width="498.976" height="155.611" transform="translate(150.169 51.545)" fill="#c7cb15"/><path d="M558.717,51.545s26.527,66.785,46.812,92.3v-92.3Z" transform="translate(43.772 0)" fill="#f1de00"/><path d="M278.317,169.436s-93.9,14.628-128.343,14.628V149.619a178.6,178.6,0,0,1,25.941,0Z" transform="translate(0 10.452)" fill="#f1de00"/><path d="M149.974,73.3A184.475,184.475,0,0,0,175.019,85c.9.234,7.607-9.4,7.607-9.4s-28.439-10.338-32.651-14.824Z" transform="translate(0 0.989)" fill="#f1de00"/><path d="M192.539,51.545s46.5,25.2,52.313,25.2h78.254a180.057,180.057,0,0,1-61.714-25.2Z" transform="translate(4.558 0)" fill="#f1de00"/><path d="M411.9,64.145s-49.776,8.426-71.856,3c-.273,0-33.9-9.518-45.6-15.6h32.5S359.434,68.553,411.9,64.145Z" transform="translate(15.471 0)" fill="#f1de00"/><path d="M347.474,51.545a247.461,247.461,0,0,0,46.617,7.021A98.693,98.693,0,0,0,437,51.545Z" transform="translate(21.15 0)" fill="#f1de00"/><path d="M595.67,194.744a208.662,208.662,0,0,1-15.6-27.306H553.15s6.709,25.707,11.2,27.7C563.916,194.744,595.67,194.744,595.67,194.744Z" transform="translate(43.176 12.411)" fill="#f1de00"/><path d="M537.541,194.744s-4.486-20.91-2.886-27.306h-14.98s2.028,25.941,0,27.306Z" transform="translate(39.591 12.411)" fill="#f1de00"/><path d="M494.974,194.744s-1.326-22.938,2.886-27.306h-8.035s-1.131,21.689-4.682,27.306Z" transform="translate(35.893 12.411)" fill="#f1de00"/><path d="M472.524,194.744s1.326-18.022,6.475-27.306H463.4s-5.15,21.689-10.494,27.7C453.253,194.744,472.524,194.744,472.524,194.744Z" transform="translate(32.44 12.411)" fill="#f1de00"/><path d="M448.876,194.744s6.241-20.91,10.728-27.306h-9.4s-9.168,24.81-12.522,27.306Z" transform="translate(30.81 12.411)" fill="#f1de00"/><path d="M420.226,194.744A204.836,204.836,0,0,1,437,167.438H413.049a346.412,346.412,0,0,1-27.307,27.7C385.78,194.744,420.226,194.744,420.226,194.744Z" transform="translate(25.248 12.411)" fill="#f1de00"/><path d="M361.917,194.744s31.208-22.7,35.772-27.306H367.34s-47.4,25.707-61.48,27.306Z" transform="translate(16.694 12.411)" fill="#f1de00"/><path d="M149.974,142.412a120.991,120.991,0,0,0,25.941,4.251v-11.2a194.636,194.636,0,0,0-25.941-3.9Z" transform="translate(0 8.569)" fill="#f1de00"/><path d="M149.974,105.62s19.5,1.795,25.941,5.149V91.109A222.493,222.493,0,0,1,149.974,82.8Z" transform="translate(0 3.347)" fill="#f1de00"/><rect width="447.171" height="103.142" transform="translate(176.071 76.745)" fill="#616265"/><path d="M225.425,135.785a20.2,20.2,0,0,1-7.8,1.286,13.264,13.264,0,0,1-14.46-11.948,13.485,13.485,0,0,1-.052-1.7A14.123,14.123,0,0,1,218.4,108.985a16.835,16.835,0,0,1,6.982,1.21l-.935,2.847a14.823,14.823,0,0,0-5.93-1.131,10.533,10.533,0,0,0-11.469,11.235A10.3,10.3,0,0,0,218.4,134.108a16.286,16.286,0,0,0,6.2-1.131Z" transform="translate(5.69 6.146)" fill="#fff"/><path d="M261.615,122.664a12.367,12.367,0,0,1-12.678,13.575,12.092,12.092,0,0,1-12.2-11.986q0-.463.027-.926a12.522,12.522,0,0,1,11.465-13.5c.4-.033.809-.046,1.213-.04a12.014,12.014,0,0,1,12.2,11.826Q261.652,122.142,261.615,122.664Zm-21.182.428a9.361,9.361,0,0,0,8.185,10.408c.171.021.342.037.514.048,5.579,0,8.738-4.877,8.738-10.728,0-5.11-2.847-10.494-8.7-10.494s-8.66,5.11-8.66,10.766Z" transform="translate(9.29 6.237)" fill="#fff"/><path d="M272.73,131.816a13.646,13.646,0,0,0,6.515,1.677c3.705,0,5.89-1.795,5.89-4.408s-1.482-3.9-5.305-5.149c-4.565-1.482-7.412-3.667-7.412-7.333s3.628-7.022,9.089-7.022a13.648,13.648,0,0,1,6.2,1.249l-1.014,2.73a11.941,11.941,0,0,0-5.423-1.17c-3.9,0-5.305,2.107-5.305,3.9,0,2.419,1.716,3.589,5.578,4.993,4.759,1.677,7.178,3.9,7.178,7.568s-3.2,7.412-9.831,7.412a15.607,15.607,0,0,1-7.177-1.638Z" transform="translate(13.037 6.214)" fill="#fff"/><path d="M310.035,113.1h-9.284v-2.926h22.587V113.1h-9.324v23.64h-3.9Z" transform="translate(16.147 6.279)" fill="#fff"/><path d="M342.309,110.178h-4.838l-10.61,26.839h4.174l7.14-18.92c.585-1.639,1.092-3.277,1.56-4.876h0c.468,1.56.937,3.16,1.638,4.915l7.217,18.88h4.291Z" transform="translate(18.943 6.279)" fill="#fff"/><path d="M372.351,105.28h7.1l9.129,25.746,9.245-25.746h7.1l-13.068,36.241h-6.671Z" transform="translate(23.814 5.754)" fill="#fff"/><path d="M413.86,105.28h19.934v6.827H420.725v6.554h13.069v6.631H420.725v9.44h13.069v6.788H413.86Z" transform="translate(28.259 5.754)" fill="#fff"/><path d="M449.484,105.284h7.295a24.158,24.158,0,0,1,8.543,1.054,8.776,8.776,0,0,1,3.9,3.549,10.919,10.919,0,0,1,1.56,5.891,10.025,10.025,0,0,1-1.716,5.968,10.379,10.379,0,0,1-5.15,3.628l8.582,16.111h-7.411l-8.154-15.331h-.624v15.331h-6.826Zm6.9,14.161h2.146a8.426,8.426,0,0,0,4.525-.858,3.239,3.239,0,0,0,1.249-2.847,3.507,3.507,0,0,0-.624-2.068,3.393,3.393,0,0,0-1.638-1.248,12.457,12.457,0,0,0-3.9-.391h-1.872Z" transform="translate(32.074 5.751)" fill="#fff"/><path d="M487.575,105.284h8.153a26.925,26.925,0,0,1,11.7,1.951,15.286,15.286,0,0,1,6.319,6.359,22.311,22.311,0,0,1,1.093,17.984,15.967,15.967,0,0,1-3.9,5.812,13.554,13.554,0,0,1-5.305,3.2,37.733,37.733,0,0,1-9.908.9h-8.153Zm6.865,6.827v22.859h3.2a16.032,16.032,0,0,0,6.865-1.092,8.225,8.225,0,0,0,3.472-3.667,13.389,13.389,0,0,0,1.366-6.32,12.018,12.018,0,0,0-3.238-8.933,12.911,12.911,0,0,0-9.324-2.847Z" transform="translate(36.153 5.75)" fill="#fff"/><path d="M528.061,105.28h19.778v6.827H534.927v6.554h12.912v6.631H534.927v9.44h12.912v6.788H528.061Z" transform="translate(40.489 5.754)" fill="#fff"/></g></svg>