<svg id="guanabara" xmlns="http://www.w3.org/2000/svg" xmlns:xlink="http://www.w3.org/1999/xlink" width="100" height="50" viewBox="0 0 500 65.626">
  <defs>
    <clipPath id="clip-path">
      <rect id="Rectangle_1578" data-name="Rectangle 1578" width="500" height="65.626" fill="none"/>
    </clipPath>
  </defs>
  <g id="Group_15109" data-name="Group 15109" clip-path="url(#clip-path)">
    <path id="Path_21990" data-name="Path 21990" d="M46.173,30.594H42.311a5.322,5.322,0,0,0-5.322,5.322V51.034a2.142,2.142,0,0,1-2.142,2.142h-5.7A15.734,15.734,0,0,1,13.409,37.442V31.083A15.735,15.735,0,0,1,29.144,15.348h7.233a4.061,4.061,0,0,0,4.061-4.061V6a4.061,4.061,0,0,0-4.061-4.061H26.558A26.557,26.557,0,0,0,0,28.5v8.677A29.412,29.412,0,0,0,29.412,66.586H41.3c5.946,0,10.2-4.82,10.2-10.766v-19.9a5.322,5.322,0,0,0-5.322-5.322" transform="translate(0 -1.387)" fill="#0053a0"/>
    <path id="Path_21991" data-name="Path 21991" d="M245.6,2.054h-5.39a4.461,4.461,0,0,0-4.461,4.461V41.26a10.921,10.921,0,0,1-21.842,0V6.515a4.461,4.461,0,0,0-4.461-4.461h-5.39A4.461,4.461,0,0,0,199.6,6.515v38.51a21.468,21.468,0,0,0,21.468,21.468H228.6a21.468,21.468,0,0,0,21.468-21.468V6.515A4.461,4.461,0,0,0,245.6,2.054" transform="translate(-142.727 -1.469)" fill="#0053a0"/>
    <path id="Path_21992" data-name="Path 21992" d="M634.859,2.054h-7.629A3.342,3.342,0,0,0,623.888,5.4v34.13L601.033,3.6a3.342,3.342,0,0,0-2.82-1.548h-9.136A3.342,3.342,0,0,0,585.735,5.4V61.1a5.391,5.391,0,0,0,5.391,5.391h3.531a5.391,5.391,0,0,0,5.391-5.391V30.359l22.242,33.712a5.391,5.391,0,0,0,4.5,2.422h6.02A5.391,5.391,0,0,0,638.2,61.1V5.4a3.342,3.342,0,0,0-3.342-3.342" transform="translate(-418.846 -1.469)" fill="#0053a0"/>
    <path id="Path_21993" data-name="Path 21993" d="M422.4,5.558A7.693,7.693,0,0,0,415.011,0h-7.078a7.693,7.693,0,0,0-7.29,5.237L383.715,55.475a7.693,7.693,0,1,0,14.58,4.913L411.179,22.15,422.13,60.066a7.693,7.693,0,0,0,14.782-4.27Z" transform="translate(-274.096)" fill="#0053a0"/>
    <path id="Path_21994" data-name="Path 21994" d="M1619.27,55.8,1604.76,5.559A7.693,7.693,0,0,0,1597.37,0h-7.078A7.693,7.693,0,0,0,1583,5.238l-16.927,50.238a7.693,7.693,0,1,0,14.58,4.913l12.884-38.237,10.951,37.915A7.693,7.693,0,0,0,1619.27,55.8" transform="translate(-1119.574 -0.001)" fill="#0053a0"/>
    <path id="Path_21995" data-name="Path 21995" d="M1198.742,5.558A7.693,7.693,0,0,0,1191.352,0h-7.078a7.693,7.693,0,0,0-7.29,5.237l-16.927,50.238a7.693,7.693,0,1,0,14.58,4.913L1187.52,22.15l10.951,37.916a7.693,7.693,0,0,0,14.782-4.27Z" transform="translate(-829.24)" fill="#0053a0"/>
    <path id="Path_21996" data-name="Path 21996" d="M823.927,5.558A7.693,7.693,0,0,0,816.537,0h-7.078a7.693,7.693,0,0,0-7.29,5.237L785.241,55.475a7.693,7.693,0,1,0,14.58,4.913L812.7,22.15l10.951,37.916a7.693,7.693,0,0,0,14.782-4.27Z" transform="translate(-561.219)" fill="#0053a0"/>
    <path id="Path_21997" data-name="Path 21997" d="M1015.223,20.308A18.015,18.015,0,0,0,997.21,2.054H971.18a3.91,3.91,0,0,0-3.91,3.91V35.557s0,.009,0,.014v.268a2.244,2.244,0,0,0,2.244,2.243h9.723v0h17.9a6.126,6.126,0,0,1,6.126,6.126v2a7.214,7.214,0,0,1-7.214,7.214H978.39l.19,11.967H996.6a18.623,18.623,0,0,0,18.623-18.623V44.211a18.02,18.02,0,0,0-4.677-12.136,17.745,17.745,0,0,0,4.674-11.768m-35.986-6.287H997.21a6.048,6.048,0,1,1,0,12.1H979.237Z" transform="translate(-691.673 -1.469)" fill="#0053a0"/>
    <path id="Path_21998" data-name="Path 21998" d="M1415.978,35.24a17.951,17.951,0,0,0-9.56-33.186h-26.03a3.91,3.91,0,0,0-3.91,3.91V62.3a3.3,3.3,0,0,0,3.3,3.3h5.366a3.3,3.3,0,0,0,3.3-3.3V38.083h15.189l10.033,25.369a3.4,3.4,0,0,0,3.159,2.148h5.284a3.951,3.951,0,0,0,3.677-5.4Zm-27.533-21.219h17.973a6.048,6.048,0,1,1,0,12.1h-17.973Z" transform="translate(-984.289 -1.469)" fill="#0053a0"/>
  </g>
</svg>
