<svg xmlns="http://www.w3.org/2000/svg" width="100" height="50" viewBox="0 0 369.922 159.999"><g transform="translate(-185.974 -39.026)"><g transform="translate(255.743 74.28)"><path d="M257.465,75.15,316.908,108.4V75.15Z" transform="translate(-257.465 -75.15)" fill="#226822"/></g><g transform="translate(315.187 42.632)"><path d="M431.195,74.369v46.315l-31.248,16.581H350.672l-32.3-18.829V57.944l29.893-15.223H494.491l-63.3,31.648" transform="translate(-318.375 -42.721)" fill="#ffd300"/></g><g transform="translate(311.581 39.026)"><path d="M400.756,140.782H349.609l-34.928-20.363V55.645l32.633-16.619H509.676L434.712,76.508v46.255Zm-49.2-7.211h47.4l28.54-15.144V77.885H355.791v24.037h41.138v7.211H348.58V70.675h81.674l48.874-24.438H349.045L321.892,60.065v56.211Z" transform="translate(-314.681 -39.026)" fill="#17100d"/></g><g transform="translate(241.913 70.675)"><path d="M320.173,114.46l-76.88-43h76.88ZM270.955,78.666l42.006,23.5v-23.5Z" transform="translate(-243.293 -71.456)" fill="#17100d"/></g><path d="M240.414,165.211V157.2H195.746l-9.771,7.449v31.458l9.771,5.454h34.523l10.146-2.549V179.633H223.627v13.914H203.6V165.211Z" transform="translate(0 -2.846)" fill="#226822"/><path d="M300.75,162.2l-7.405-4.781H254.436l-7.481,4.781v34.373l7.481,5.3h38.909l7.405-5.3Zm-15.622,3.033v28.826h-22.55V165.237Z" transform="translate(-1.469 -2.852)" fill="#226822"/><path d="M563.7,162.2l-7.406-4.781H517.384L509.9,162.2v34.373l7.482,5.3h38.908l7.406-5.3Zm-15.623,3.033v28.826h-22.55V165.237Z" transform="translate(-7.802 -2.852)" fill="#226822"/><path d="M421.04,157.423H366.933v7.814h18.322v36.64h16.9v-36.64H421.04Z" transform="translate(-4.358 -2.852)" fill="#226822"/><rect width="44.453" height="16.902" transform="translate(421.258 199.025) rotate(-90)" fill="#226822"/><path d="M503.507,157.423h-16.9v36.64H465.449v-7.214h-16.9v9.481l9.2,5.546H493.35l10.157-5.546Z" transform="translate(-6.324 -2.851)" fill="#226822"/><path d="M344.984,157.423H306.076v44.454H323.3v-36.64h20v36.64h17.227V162.239Z" transform="translate(-2.893 -2.851)" fill="#226822"/></g></svg>