<svg xmlns="http://www.w3.org/2000/svg" xmlns:xlink="http://www.w3.org/1999/xlink" width="150" height="60" viewBox="0 0 500.001 78.093">
  <defs>
    <linearGradient id="linear-gradient" x1="0.5" x2="0.5" y2="1" gradientUnits="objectBoundingBox">
      <stop offset="0" stop-color="#b867a4"/>
      <stop offset="1" stop-color="#cb82b4"/>
    </linearGradient>
  </defs>
  <g id="jamjoy" transform="translate(0.002)">
    <g id="Layer_1" data-name="Layer 1" transform="translate(-0.002 0)">
      <path id="Caminho_3294" data-name="Caminho 3294" d="M6.679,22.318S-17.255,52.64,25.473,51.023C66.953,49.446,69.631,54.794,90.179,0h-20.2S60.227,40.788,42.142,40.588C21.448,40.38,36.4,22.6,36.4,22.6Z" transform="translate(0.002 0)" fill="url(#linear-gradient)"/>
      <path id="Caminho_3295" data-name="Caminho 3295" d="M329.179,22.318S305.245,52.64,347.973,51.023c41.5-1.539,44.159,3.771,64.707-51.023h-20.2s-9.751,40.788-27.836,40.588C343.948,40.38,358.9,22.6,358.9,22.6Z" transform="translate(-74.307 0)" fill="url(#linear-gradient)"/>
      <path id="Caminho_3296" data-name="Caminho 3296" d="M96.12,51.085h33.092L166.8,21.61,152.946,51.085h18.97L194.434,0h-29.3a8.174,8.174,0,0,0-5,1.709Z" transform="translate(-22.146 0)" fill="url(#linear-gradient)"/>
      <path id="Caminho_3297" data-name="Caminho 3297" d="M203.6,51.085h18.262L235.515,20.9l8.6,20.225a2.947,2.947,0,0,0,4.533,1.2l27.3-21.425L262.465,51.085h18.97l19.317-43.82A5.179,5.179,0,0,0,296.019,0H275.695a7.08,7.08,0,0,0-4.063,1.285L260.857,8.843l-4.541-6.657A4.979,4.979,0,0,0,252.2,0H231.975a7.742,7.742,0,0,0-7.042,4.525Z" transform="translate(-46.911 0)" fill="url(#linear-gradient)"/>
      <path id="Caminho_3298" data-name="Caminho 3298" d="M498.943,0H470.961a36.871,36.871,0,0,0-33.369,21.187l-5.649,11.99a12.567,12.567,0,0,0,11.374,17.908h34a32.87,32.87,0,0,0,29.815-19.027l5.17-11.126A14.73,14.73,0,0,0,498.943,0Zm-3.517,18.239-8,15.623A13.676,13.676,0,0,1,475.248,41.3H469.3a7.6,7.6,0,0,1-6.857-10.874l5.287-11.074a16.492,16.492,0,0,1,14.876-9.381h7.757a5.695,5.695,0,0,1,5.064,8.265Z" transform="translate(-99.25 0)" fill="url(#linear-gradient)"/>
      <path id="Caminho_3299" data-name="Caminho 3299" d="M546.493,0H564.74l9.512,13.514L589.721,0h30.76L556.013,51.085H522.89l38.279-28.452Z" transform="translate(-120.48 0)" fill="url(#linear-gradient)"/>
      <path id="Caminho_3300" data-name="Caminho 3300" d="M200.594,73.8H202.8l-2.116,10.159a10,10,0,0,0-.262,1.87,2.578,2.578,0,0,0,1.047,2.139,4.194,4.194,0,0,0,2.64.77,4.925,4.925,0,0,0,2.309-.577,4.31,4.31,0,0,0,1.716-1.708,13.229,13.229,0,0,0,1.139-3.594l1.939-9.058h2.232l-2.016,9.689a13.459,13.459,0,0,1-1.362,3.925,6.4,6.4,0,0,1-2.347,2.309,6.726,6.726,0,0,1-3.509.877,7.781,7.781,0,0,1-3.24-.616A4.394,4.394,0,0,1,198.24,85.8a16.53,16.53,0,0,1,.469-2.986Z" transform="translate(-45.675 -17.005)" fill="#b867a4"/>
      <path id="Caminho_3301" data-name="Caminho 3301" d="M218,91.588l2.5-11.959h2.039l-.416,1.97a8.326,8.326,0,0,1,2.032-1.747,4.033,4.033,0,0,1,1.947-.485,2.932,2.932,0,0,1,1.862.593,2.816,2.816,0,0,1,.985,1.647,6.864,6.864,0,0,1,1.916-1.685,4.379,4.379,0,0,1,2.124-.554,3.171,3.171,0,0,1,2.247.708,2.624,2.624,0,0,1,.77,1.993,10.893,10.893,0,0,1-.262,1.824l-1.608,7.7H232.1l1.608-7.888a7.164,7.164,0,0,0,.215-1.385,1.185,1.185,0,0,0-.369-.923,1.539,1.539,0,0,0-1.047-.339,3.679,3.679,0,0,0-1.862.554,4.017,4.017,0,0,0-1.47,1.447,9.712,9.712,0,0,0-.916,2.755L227.043,91.6H225l1.693-8.073a6.681,6.681,0,0,0,.177-1.17,1.254,1.254,0,0,0-.369-.947,1.285,1.285,0,0,0-.947-.362,3.656,3.656,0,0,0-1.824.554,4.356,4.356,0,0,0-1.539,1.539,9.066,9.066,0,0,0-.977,2.809L220.032,91.6Z" transform="translate(-50.229 -18.285)" fill="#b867a4"/>
      <path id="Caminho_3302" data-name="Caminho 3302" d="M251.29,91.586l2.5-11.959h1.847l-.439,2.086a10.005,10.005,0,0,1,2.255-1.793,4.448,4.448,0,0,1,2.139-.562,3.132,3.132,0,0,1,2.309.77,2.755,2.755,0,0,1,.831,2.1,11.967,11.967,0,0,1-.292,2.093L260.9,91.563h-2.039l1.593-7.573a8.966,8.966,0,0,0,.231-1.639,1.255,1.255,0,0,0-.385-.962,1.724,1.724,0,0,0-1.185-.369,4.025,4.025,0,0,0-2.832,1.139,7.211,7.211,0,0,0-1.793,3.848l-1.162,5.564Z" transform="translate(-57.899 -18.283)" fill="#b867a4"/>
      <path id="Caminho_3303" data-name="Caminho 3303" d="M268.428,87.054a8.342,8.342,0,0,1,2.062-5.8,5.7,5.7,0,0,1,4.456-1.893,4.617,4.617,0,0,1,3.486,1.354,4.979,4.979,0,0,1,1.324,3.648,8.913,8.913,0,0,1-.831,3.848,6.157,6.157,0,0,1-2.363,2.709,6.072,6.072,0,0,1-3.24.947,5.387,5.387,0,0,1-2.54-.6,4.163,4.163,0,0,1-1.747-1.693,5.117,5.117,0,0,1-.608-2.517Zm2.039-.208a3.632,3.632,0,0,0,.808,2.563,2.7,2.7,0,0,0,2.063.877,3.325,3.325,0,0,0,1.293-.269,3.848,3.848,0,0,0,1.2-.77,5.771,5.771,0,0,0,.939-1.239,8.073,8.073,0,0,0,.97-3.632,3.6,3.6,0,0,0-.816-2.517,2.67,2.67,0,0,0-2.055-.893,3.479,3.479,0,0,0-1.747.454A4.748,4.748,0,0,0,271.7,82.76a5.972,5.972,0,0,0-.931,2.039,8.466,8.466,0,0,0-.3,2.047Z" transform="translate(-61.847 -18.284)" fill="#b867a4"/>
      <path id="Caminho_3304" data-name="Caminho 3304" d="M287.962,91.669,286,79.71h1.978l1.031,6.588c.108.723.246,1.9.416,3.525.385-.847.885-1.816,1.493-2.917l4-7.2h2.147l-6.834,11.959Z" transform="translate(-65.897 -18.366)" fill="#b867a4"/>
      <path id="Caminho_3305" data-name="Caminho 3305" d="M300.088,87.055a8.373,8.373,0,0,1,2.055-5.8,5.726,5.726,0,0,1,4.464-1.893,4.671,4.671,0,0,1,3.486,1.354,4.979,4.979,0,0,1,1.324,3.648,8.912,8.912,0,0,1-.831,3.848,6.234,6.234,0,0,1-2.37,2.724,6.11,6.11,0,0,1-3.24.947,5.387,5.387,0,0,1-2.54-.6,4.125,4.125,0,0,1-1.747-1.693,5.117,5.117,0,0,1-.6-2.532Zm2.039-.208a3.633,3.633,0,0,0,.808,2.563,2.678,2.678,0,0,0,2.063.877,3.386,3.386,0,0,0,1.293-.269,3.848,3.848,0,0,0,1.193-.77,5.31,5.31,0,0,0,.939-1.239,7.935,7.935,0,0,0,.977-3.632,3.6,3.6,0,0,0-.816-2.517,2.678,2.678,0,0,0-2.055-.893,3.455,3.455,0,0,0-1.747.454,4.748,4.748,0,0,0-1.424,1.339,5.979,5.979,0,0,0-.939,2.039,8.407,8.407,0,0,0-.292,2.047Z" transform="translate(-69.142 -18.285)" fill="#b867a4"/>
      <path id="Caminho_3306" data-name="Caminho 3306" d="M333.029,87.233l2.039.215a6.842,6.842,0,0,1-2.178,3.325,5.1,5.1,0,0,1-3.2,1.093,4.171,4.171,0,0,1-3.155-1.262,4.887,4.887,0,0,1-1.216-3.525,10.12,10.12,0,0,1,.77-3.848,6.3,6.3,0,0,1,2.224-2.878,5.78,5.78,0,0,1,3.309-.985,4.194,4.194,0,0,1,3.078,1.085,3.848,3.848,0,0,1,1.131,2.878l-2.009.139a2.416,2.416,0,0,0-.654-1.778,2.309,2.309,0,0,0-1.708-.646,3.178,3.178,0,0,0-2.132.77,5.1,5.1,0,0,0-1.408,2.363,9.742,9.742,0,0,0-.516,3.078,3.363,3.363,0,0,0,.677,2.309,2.147,2.147,0,0,0,1.67.77,2.94,2.94,0,0,0,1.893-.77A4.964,4.964,0,0,0,333.029,87.233Z" transform="translate(-74.955 -18.286)" fill="#b867a4"/>
      <path id="Caminho_3307" data-name="Caminho 3307" d="M340.068,87.054a8.342,8.342,0,0,1,2.063-5.8,5.7,5.7,0,0,1,4.456-1.893,4.617,4.617,0,0,1,3.486,1.354,4.979,4.979,0,0,1,1.324,3.648,8.912,8.912,0,0,1-.831,3.848,6.157,6.157,0,0,1-2.37,2.724,6.087,6.087,0,0,1-3.24.947,5.387,5.387,0,0,1-2.54-.6,4.125,4.125,0,0,1-1.747-1.693,5.117,5.117,0,0,1-.6-2.532Zm2.039-.208a3.632,3.632,0,0,0,.77,2.563,2.7,2.7,0,0,0,2.062.877,3.325,3.325,0,0,0,1.293-.269,3.848,3.848,0,0,0,1.2-.77,5.771,5.771,0,0,0,.939-1.239A7.615,7.615,0,0,0,349,86.516a7.173,7.173,0,0,0,.346-2.139,3.6,3.6,0,0,0-.816-2.517,2.678,2.678,0,0,0-2.055-.893,3.478,3.478,0,0,0-1.747.454A4.748,4.748,0,0,0,343.3,82.76a5.825,5.825,0,0,0-.931,2.039,8.466,8.466,0,0,0-.262,2.047Z" transform="translate(-78.354 -18.284)" fill="#b867a4"/>
      <path id="Caminho_3308" data-name="Caminho 3308" d="M356.27,91.586l2.5-11.959h1.847l-.439,2.086a9.812,9.812,0,0,1,2.255-1.793,4.425,4.425,0,0,1,2.139-.562,3.148,3.148,0,0,1,2.309.77,2.755,2.755,0,0,1,.831,2.1,11.967,11.967,0,0,1-.292,2.093l-1.539,7.242h-2.039l1.585-7.573a8.47,8.47,0,0,0,.239-1.639,1.278,1.278,0,0,0-.408-.97,1.731,1.731,0,0,0-1.193-.369,4.025,4.025,0,0,0-2.8,1.147,7.157,7.157,0,0,0-1.793,3.848l-1.162,5.564Z" transform="translate(-82.088 -18.283)" fill="#b867a4"/>
      <path id="Caminho_3309" data-name="Caminho 3309" d="M381.354,87.24l2.039.215a6.849,6.849,0,0,1-2.186,3.325A5.079,5.079,0,0,1,378,91.873a4.194,4.194,0,0,1-3.163-1.239,4.887,4.887,0,0,1-1.208-3.525,10.005,10.005,0,0,1,.77-3.848,6.2,6.2,0,0,1,2.224-2.878,5.733,5.733,0,0,1,3.3-.985A4.225,4.225,0,0,1,383,80.483a3.8,3.8,0,0,1,1.124,2.878l-2,.139a2.416,2.416,0,0,0-.662-1.778,2.309,2.309,0,0,0-1.708-.646,3.155,3.155,0,0,0-2.124.77,5.164,5.164,0,0,0-1.408,2.34,9.951,9.951,0,0,0-.508,3.078,3.4,3.4,0,0,0,.67,2.309,2.155,2.155,0,0,0,1.67.77,2.963,2.963,0,0,0,1.9-.77A5.026,5.026,0,0,0,381.354,87.24Z" transform="translate(-86.086 -18.293)" fill="#b867a4"/>
      <path id="Caminho_3310" data-name="Caminho 3310" d="M396.837,87.554l1.986.2a5.964,5.964,0,0,1-1.97,2.809,5.387,5.387,0,0,1-3.663,1.331,4.972,4.972,0,0,1-2.44-.616,4.025,4.025,0,0,1-1.685-1.785,5.872,5.872,0,0,1-.585-2.67,8.574,8.574,0,0,1,.908-3.8,6.542,6.542,0,0,1,2.309-2.74,5.849,5.849,0,0,1,3.125-.893,4.533,4.533,0,0,1,3.417,1.331,5,5,0,0,1,1.278,3.625,10.44,10.44,0,0,1-.162,1.8h-8.766a4.878,4.878,0,0,0-.046.631,3.8,3.8,0,0,0,.77,2.563,2.409,2.409,0,0,0,1.893.885,3.663,3.663,0,0,0,2.055-.685A4.517,4.517,0,0,0,396.837,87.554Zm-5.926-2.963h6.718v-.446a3.3,3.3,0,0,0-.77-2.347,2.594,2.594,0,0,0-1.97-.823,3.617,3.617,0,0,0-2.386.9,5.464,5.464,0,0,0-1.593,2.694Z" transform="translate(-89.51 -18.291)" fill="#b867a4"/>
      <path id="Caminho_3311" data-name="Caminho 3311" d="M404.49,90.308l2.5-11.959h2.039l-2.5,11.959Zm2.978-14.2.485-2.309h2.024l-.485,2.309Z" transform="translate(-93.199 -17.005)" fill="#b867a4"/>
      <path id="Caminho_3312" data-name="Caminho 3312" d="M416.178,88.72l-.346,1.67a5.857,5.857,0,0,1-1.424.192,2.917,2.917,0,0,1-1.932-.6,1.539,1.539,0,0,1-.546-1.224,12.768,12.768,0,0,1,.292-1.816l1.454-6.926h-1.608l.323-1.578h1.616l.616-2.94,2.309-1.408-.916,4.348h2.009l-.339,1.578h-1.993l-1.385,6.611a13.513,13.513,0,0,0-.262,1.539.724.724,0,0,0,.246.477.985.985,0,0,0,.685.192A4.788,4.788,0,0,0,416.178,88.72Z" transform="translate(-94.913 -17.072)" fill="#b867a4"/>
      <path id="Caminho_3313" data-name="Caminho 3313" d="M420.048,87.054a8.342,8.342,0,0,1,2.062-5.8,5.7,5.7,0,0,1,4.456-1.893,4.617,4.617,0,0,1,3.486,1.354,4.979,4.979,0,0,1,1.324,3.648,8.914,8.914,0,0,1-.831,3.848,6.157,6.157,0,0,1-2.37,2.724,6.072,6.072,0,0,1-3.24.947,5.387,5.387,0,0,1-2.54-.6,4.164,4.164,0,0,1-1.747-1.693,5.118,5.118,0,0,1-.6-2.532Zm2.039-.208a3.632,3.632,0,0,0,.808,2.563,2.7,2.7,0,0,0,2.063.877,3.324,3.324,0,0,0,1.293-.269,3.847,3.847,0,0,0,1.2-.77,5.768,5.768,0,0,0,.939-1.239,6.776,6.776,0,0,0,.623-1.493,7.173,7.173,0,0,0,.346-2.139,3.6,3.6,0,0,0-.816-2.517,2.655,2.655,0,0,0-2.055-.893,3.479,3.479,0,0,0-1.747.454,4.749,4.749,0,0,0-1.424,1.339,5.971,5.971,0,0,0-.931,2.039,8.466,8.466,0,0,0-.3,2.047Z" transform="translate(-96.783 -18.284)" fill="#b867a4"/>
      <path id="Caminho_3314" data-name="Caminho 3314" d="M453.493,87.547l1.985.2a6,6,0,0,1-1.985,2.786,5.441,5.441,0,0,1-3.671,1.331,5,5,0,0,1-2.44-.616,4.025,4.025,0,0,1-1.685-1.785,5.972,5.972,0,0,1-.577-2.67,8.564,8.564,0,0,1,.9-3.8,6.556,6.556,0,0,1,2.355-2.74,5.8,5.8,0,0,1,3.117-.893,4.533,4.533,0,0,1,3.417,1.331,5,5,0,0,1,1.277,3.625,11.233,11.233,0,0,1-.154,1.8h-8.8a4.884,4.884,0,0,0-.046.631,3.763,3.763,0,0,0,.77,2.563,2.386,2.386,0,0,0,1.886.885,3.687,3.687,0,0,0,2.062-.685A4.5,4.5,0,0,0,453.493,87.547Zm-5.918-2.963h6.688v-.446a3.3,3.3,0,0,0-.77-2.347,2.578,2.578,0,0,0-1.97-.823,3.633,3.633,0,0,0-2.386.9,5.457,5.457,0,0,0-1.57,2.694Z" transform="translate(-102.561 -18.284)" fill="#b867a4"/>
      <path id="Caminho_3315" data-name="Caminho 3315" d="M461.23,91.586l2.5-11.959h2.039l-.416,1.97a8.326,8.326,0,0,1,2.032-1.747,4.033,4.033,0,0,1,1.947-.485,2.932,2.932,0,0,1,1.862.593,2.817,2.817,0,0,1,.985,1.647,6.864,6.864,0,0,1,1.955-1.693,4.379,4.379,0,0,1,2.124-.554,3.171,3.171,0,0,1,2.247.708,2.624,2.624,0,0,1,.77,1.993,10.892,10.892,0,0,1-.262,1.824l-1.608,7.7h-2.039l1.585-7.881a7.174,7.174,0,0,0,.216-1.385,1.185,1.185,0,0,0-.369-.923,1.539,1.539,0,0,0-1.047-.339,3.679,3.679,0,0,0-1.862.554,4.017,4.017,0,0,0-1.47,1.447,9.711,9.711,0,0,0-.916,2.755l-1.216,5.78h-2.039l1.693-8.073a6.684,6.684,0,0,0,.177-1.17,1.285,1.285,0,0,0-.362-.947,1.316,1.316,0,0,0-.954-.362,3.609,3.609,0,0,0-1.816.554,4.317,4.317,0,0,0-1.539,1.539,9.24,9.24,0,0,0-.977,2.809l-1.185,5.649Z" transform="translate(-106.273 -18.283)" fill="#b867a4"/>
      <path id="Caminho_3316" data-name="Caminho 3316" d="M497.882,91.669,495.92,79.71h1.986l1.023,6.588c.108.723.246,1.9.416,3.525.393-.847.893-1.816,1.5-2.917l3.994-7.2h2.155l-6.849,11.959Z" transform="translate(-114.266 -18.366)" fill="#b867a4"/>
      <path id="Caminho_3317" data-name="Caminho 3317" d="M509.43,90.308l2.5-11.959h2.039l-2.5,11.959Zm2.971-14.2.485-2.309h2.032l-.485,2.309Z" transform="translate(-117.379 -17.005)" fill="#b867a4"/>
      <path id="Caminho_3318" data-name="Caminho 3318" d="M524.324,90.1a8.249,8.249,0,0,1-2.055,1.339,5.325,5.325,0,0,1-2.093.423,3.7,3.7,0,0,1-2.67-.977,3.31,3.31,0,0,1-1.016-2.493,3.47,3.47,0,0,1,.454-1.778,3.6,3.6,0,0,1,1.216-1.239,5.433,5.433,0,0,1,1.847-.67,21.781,21.781,0,0,1,2.609-.215,9.182,9.182,0,0,0,2.747-.4,5.11,5.11,0,0,0,.239-1.385,1.331,1.331,0,0,0-.516-1.116,3.271,3.271,0,0,0-2.07-.562,3.533,3.533,0,0,0-2.1.569,3.179,3.179,0,0,0-1.193,1.616l-2.07-.185a5.425,5.425,0,0,1,2-2.724,5.941,5.941,0,0,1,3.456-.947,5.387,5.387,0,0,1,3.509,1.062,2.494,2.494,0,0,1,1.039,2.047,10,10,0,0,1-.285,2.216l-.662,2.978a11.326,11.326,0,0,0-.315,2.309,7.919,7.919,0,0,0,.246,1.616h-2.063a7.312,7.312,0,0,1-.254-1.485Zm.77-4.571a4.856,4.856,0,0,1-.916.262c-.331.062-.877.123-1.639.192a12.2,12.2,0,0,0-2.516.4,2.093,2.093,0,0,0-1.1.77,1.994,1.994,0,0,0-.369,1.17,1.847,1.847,0,0,0,.585,1.408,2.394,2.394,0,0,0,1.685.554,4,4,0,0,0,3.425-2.032,8.564,8.564,0,0,0,.831-2.724Z" transform="translate(-119.005 -18.284)" fill="#b867a4"/>
      <path id="Caminho_3319" data-name="Caminho 3319" d="M528.23,94.8l.362-1.732a4.617,4.617,0,0,0,1.239.192,1.354,1.354,0,0,0,1.047-.431,6.613,6.613,0,0,0,.77-2.409l2.563-12.075h2.039l-2.593,12.444a8.658,8.658,0,0,1-1.116,3.178,2.762,2.762,0,0,1-2.355,1.124A7.8,7.8,0,0,1,528.23,94.8Zm6.457-18.693.485-2.309h2.016l-.485,2.309Z" transform="translate(-121.711 -17.005)" fill="#b867a4"/>
      <path id="Caminho_3320" data-name="Caminho 3320" d="M547.659,90.1a8.254,8.254,0,0,1-2.039,1.339,5.326,5.326,0,0,1-2.093.423,3.7,3.7,0,0,1-2.67-.977,3.309,3.309,0,0,1-1.016-2.493,3.471,3.471,0,0,1,.454-1.778,3.6,3.6,0,0,1,1.208-1.239,5.434,5.434,0,0,1,1.847-.67,21.765,21.765,0,0,1,2.6-.215,9.234,9.234,0,0,0,2.755-.4,5.108,5.108,0,0,0,.239-1.385,1.332,1.332,0,0,0-.516-1.116,3.294,3.294,0,0,0-2.078-.562,3.563,3.563,0,0,0-2.1.569,3.208,3.208,0,0,0-1.185,1.616L541,83.029a5.387,5.387,0,0,1,2-2.724,5.942,5.942,0,0,1,3.456-.947,5.387,5.387,0,0,1,3.509,1.062,2.493,2.493,0,0,1,.993,2.047,10.005,10.005,0,0,1-.285,2.216l-.662,2.978a11.326,11.326,0,0,0-.315,2.309,7.919,7.919,0,0,0,.246,1.616h-2.055a7.955,7.955,0,0,1-.231-1.485Zm.77-4.571a4.78,4.78,0,0,1-.924.262c-.323.062-.87.123-1.639.192a12.2,12.2,0,0,0-2.509.4,2.094,2.094,0,0,0-1.1.77,2,2,0,0,0-.377,1.17,1.854,1.854,0,0,0,.593,1.408,2.37,2.37,0,0,0,1.685.554,4,4,0,0,0,3.425-2.032,8.769,8.769,0,0,0,.846-2.724Z" transform="translate(-124.385 -18.284)" fill="#b867a4"/>
      <path id="Caminho_3321" data-name="Caminho 3321" d="M556.19,91.589l2.5-11.959h1.8l-.508,2.447a8.351,8.351,0,0,1,1.809-2.055,3,3,0,0,1,1.808-.662,3.548,3.548,0,0,1,1.493.439l-.831,1.893a1.947,1.947,0,0,0-1.162-.385,3.148,3.148,0,0,0-2.193,1.193,8.82,8.82,0,0,0-1.77,4.294l-1.016,4.795Z" transform="translate(-128.153 -18.286)" fill="#b867a4"/>
    </g>
  </g>
</svg>
