<svg id="_1001" data-name="1001" xmlns="http://www.w3.org/2000/svg" xmlns:xlink="http://www.w3.org/1999/xlink" width="100" height="50" viewBox="0 0 301.38 161.631">
  <defs>
    <clipPath id="clip-path">
      <rect id="Retângulo_1630" data-name="Retângulo 100" width="301.38" height="161.631" fill="none"/>
    </clipPath>
  </defs>
  <g id="Grupo_15154" data-name="Grupo 15154" clip-path="url(#clip-path)">
    <path id="Caminho_22765" data-name="Caminho 22765" d="M87.881,120.816v1.124c0,7.548-.011,15.1.017,22.644a1.056,1.056,0,0,1-.888,1.238q-25.33,7.742-50.645,15.538c-.182.056-.368.1-.543.171-.509.208-.779.112-.7-.5a5.423,5.423,0,0,0,0-.651V84.382c0-.217-.015-.436,0-.651.046-.539-.148-.591-.6-.368-2.118,1.041-4.248,2.059-6.372,3.087-2.15,1.041-4.306,2.068-6.44,3.14-.542.273-.8.236-1.115-.327Q14.33,78.122,8.018,67.006C5.424,62.424,2.838,57.838.22,53.27c-.341-.6-.319-.867.314-1.244Q32.525,33.021,64.493,13.974,75.687,7.31,86.877.637c.186-.112.377-.215.562-.329.3-.186.449-.114.441.248-.005.218,0,.435,0,.652q0,14.824.006,29.648c0,.305-.175.728.141.893.262.137.522-.209.766-.362A53.76,53.76,0,0,1,154,37.363c1.084.982,2.115,2.031,3.1,3.114.467.515.688.439,1.111-.026a50.008,50.008,0,0,1,22.775-14.721c19.877-5.973,37.668-1.931,53.288,11.716.225.2.44.4.654.612,1.235,1.2,1.235,1.2,2.682.329L300.282.555c.3-.179.6-.349.955-.555a1.743,1.743,0,0,1,.116.913q.005,71.963.028,143.926c0,.851-.374,1-1.032,1.2q-25.411,7.622-50.809,15.28c-1.1.331-1.1.333-1.1-.784V93.5c-.365.042-.332.31-.4.489a53.03,53.03,0,0,1-26.193,29.676,51.971,51.971,0,0,1-21.052,5.722,53.365,53.365,0,0,1-26.844-5.308,51.882,51.882,0,0,1-15.738-11.665c-.45-.489-.678-.478-1.119-.015a54.625,54.625,0,0,1-68.363,8.94c-.228-.14-.457-.278-.854-.519m69.97-60.475c-7.9-16.816-20.888-26.489-39.619-26.818-18.78-.329-31.977,9.164-40.653,25.55V57.947q0-19.345-.007-38.69c0-.279.166-.66-.133-.823-.248-.136-.489.162-.714.3q-5.64,3.34-11.271,6.694-25.5,15.183-51.007,30.358c-.539.319-.624.556-.3,1.118q5.352,9.367,10.64,18.768c.311.552.526.7,1.156.394C32.154,73.017,38.387,70.015,44.612,67c.889-.431.885-.44.888.586,0,.163,0,.326,0,.489v78.52c0,1.146,0,1.146,1.091.811q14.969-4.6,29.946-9.181a1.228,1.228,0,0,0,1.063-1.436q-.045-21.34-.017-42.681a1.885,1.885,0,0,1,.053-.854c8.242,16.638,21.459,25.975,40.121,25.811,18.569-.164,31.88-9.438,40.089-26.075.225.123.24.422.342.66a38.829,38.829,0,0,0,9.685,13.739c9.784,8.9,21.277,12.869,34.483,11.477a42.8,42.8,0,0,0,37.9-36,30.791,30.791,0,0,0,.45-5.994,1.377,1.377,0,0,1,.97-1.532c5.371-2.728,10.726-5.487,16.087-8.234,1.046-.536,1.049-.532,1.049.612v78.927c0,1.1,0,1.1,1.036.791,10.047-3.027,20.091-6.07,30.149-9.058a1.222,1.222,0,0,0,1.066-1.435q-.034-58.726-.02-117.453c0-.163-.011-.327,0-.489.049-.624-.15-.71-.678-.38-1.266.791-2.557,1.541-3.835,2.313Q260.563,36.6,234.607,52.3c-.6.361-.857.322-1.262-.265a40.009,40.009,0,0,0-7.718-8.452c-10.7-8.7-22.918-12.05-36.422-9.3-14.675,2.994-25.082,11.592-31.044,25.423-.1.233-.1.54-.31.636" transform="translate(0)" fill="#fffdfb"/>
    <path id="Caminho_22766" data-name="Caminho 22766" d="M159.405,62.39c.208-.1.21-.4.31-.636,5.962-13.831,16.369-22.429,31.044-25.423,13.5-2.753,25.72.6,36.422,9.3A40.033,40.033,0,0,1,234.9,54.08c.4.588.665.626,1.262.265q25.949-15.7,51.922-31.37c1.278-.772,2.569-1.522,3.835-2.313.527-.33.726-.245.678.38-.013.162,0,.326,0,.489q0,58.726.02,117.454a1.222,1.222,0,0,1-1.066,1.434c-10.059,2.988-20.1,6.031-30.149,9.058-1.034.312-1.036.309-1.036-.791V69.759c0-1.144,0-1.148-1.049-.612-5.362,2.747-10.717,5.507-16.087,8.234a1.38,1.38,0,0,0-.971,1.533,30.707,30.707,0,0,1-.449,5.994,42.8,42.8,0,0,1-37.9,36c-13.205,1.392-24.7-2.575-34.483-11.477A38.834,38.834,0,0,1,159.742,95.7c-.1-.239-.117-.538-.342-.661-8.209,16.637-21.519,25.911-40.089,26.075-18.662.165-31.879-9.173-40.121-25.811a1.885,1.885,0,0,0-.053.854q-.007,21.341.017,42.681a1.228,1.228,0,0,1-1.063,1.436Q63.1,144.816,48.146,149.45c-1.09.336-1.091.336-1.091-.811V70.119c0-.163,0-.326,0-.489,0-1.026,0-1.017-.888-.586C39.941,72.064,33.709,75.066,27.5,78.11c-.63.309-.845.158-1.156-.394q-5.289-9.4-10.64-18.768c-.321-.562-.236-.8.3-1.118Q41.514,42.665,67.009,27.472q5.631-3.353,11.271-6.694c.224-.133.465-.43.714-.3.3.164.133.544.133.824Q79.139,40.65,79.134,60v1.126c8.676-16.386,21.873-25.879,40.653-25.55,18.731.329,31.715,10,39.619,26.818M102.369,76.919a46.013,46.013,0,0,0,1.34,11.36c1.171,4.538,2.9,8.807,6.108,12.342,4.893,5.383,11.607,5.736,17.037.889a21.293,21.293,0,0,0,5.288-7.345A42.154,42.154,0,0,0,133.735,63.9a24.648,24.648,0,0,0-6.942-11.408c-4.892-4.423-10.968-4.557-15.721-.3a21.575,21.575,0,0,0-5.157,7.246,41.571,41.571,0,0,0-3.546,17.479m79.949-.408a48.583,48.583,0,0,0,1.475,12.222c1.262,4.733,3.216,9.1,6.791,12.593,4.555,4.449,10.569,4.785,15.531.82a20.528,20.528,0,0,0,5.659-7.565,40.509,40.509,0,0,0,3.559-15.763,42.555,42.555,0,0,0-2.4-16.477c-1.551-4.241-3.741-8.072-7.41-10.886a10.675,10.675,0,0,0-13.22-.139,20.629,20.629,0,0,0-6.289,7.975,40.587,40.587,0,0,0-3.7,17.22" transform="translate(-1.554 -2.049)" fill="#e5001a"/>
    <path id="Caminho_22767" data-name="Caminho 22767" d="M112.041,80.108a41.573,41.573,0,0,1,3.546-17.478,21.562,21.562,0,0,1,5.158-7.245c4.753-4.258,10.829-4.125,15.721.3a24.653,24.653,0,0,1,6.941,11.408,42.159,42.159,0,0,1-1.593,30.263,21.3,21.3,0,0,1-5.289,7.346c-5.429,4.846-12.144,4.493-17.036-.89-3.213-3.534-4.937-7.8-6.108-12.342a45.967,45.967,0,0,1-1.341-11.361" transform="translate(-11.227 -5.238)" fill="#fffdfb"/>
    <path id="Caminho_22768" data-name="Caminho 22768" d="M200.894,79.7a40.587,40.587,0,0,1,3.7-17.22,20.629,20.629,0,0,1,6.289-7.975,10.675,10.675,0,0,1,13.22.139c3.668,2.814,5.859,6.645,7.41,10.886a42.555,42.555,0,0,1,2.4,16.477,40.509,40.509,0,0,1-3.559,15.763,20.528,20.528,0,0,1-5.659,7.565c-4.962,3.965-10.977,3.63-15.531-.82-3.575-3.492-5.528-7.86-6.791-12.593A48.582,48.582,0,0,1,200.894,79.7" transform="translate(-20.131 -5.239)" fill="#fffdfb"/>
  </g>
</svg>
