<svg xmlns="http://www.w3.org/2000/svg" xmlns:xlink="http://www.w3.org/1999/xlink" width="150" height="60" viewBox="0 0 500.803 110.006">
  <defs>
    <clipPath id="clip-path">
      <rect id="Rectangle_1602" data-name="Rectangle 1602" width="500.803" height="110.006" fill="none"/>
    </clipPath>
  </defs>
  <g id="mpviagens" transform="translate(0 0)">
    <path id="Path_22323" data-name="Path 22323" d="M33.162,56.878H22.785L20.862,18.485,12.408,56.878H2.538l11.1-45.948h15.6l1.635,32.188L49.019,10.93H64.8L53.663,56.878H43.686L54.172,18.769Z" transform="translate(3.608 15.539)" fill="#00307d"/>
    <g id="Group_15128" data-name="Group 15128" transform="translate(0 0)">
      <g id="Group_15127" data-name="Group 15127" clip-path="url(#clip-path)">
        <path id="Path_22324" data-name="Path 22324" d="M40.131,56.878H29.175L40.312,10.93H61.94a28.443,28.443,0,0,1,9.125,1.177,10.52,10.52,0,0,1,7.275,10.357,15.622,15.622,0,0,1-1.56,6.771A15.913,15.913,0,0,1,72.951,34.5a16.581,16.581,0,0,1-4.88,2.991,29.849,29.849,0,0,1-7.04,1.552,95.418,95.418,0,0,1-9.65.315H44.376Zm6.061-25.137h3.373q8.671,0,11.575-.94a9.407,9.407,0,0,0,4.572-3.01,7.06,7.06,0,0,0,1.669-4.543,4.224,4.224,0,0,0-.852-2.727,4.814,4.814,0,0,0-2.4-1.55,29.282,29.282,0,0,0-6.877-.489H49.42Z" transform="translate(41.476 15.54)" fill="#00307d"/>
        <path id="Path_22325" data-name="Path 22325" d="M73.367,52.845H64.014L56.372,13.767h8.745l5.4,29.561L88.151,13.767h8.686Z" transform="translate(80.14 19.572)" fill="#00307d"/>
        <path id="Path_22326" data-name="Path 22326" d="M73.283,52.845,82.2,13.767h8.745l-8.89,39.078Z" transform="translate(104.183 19.572)" fill="#00307d"/>
        <path id="Path_22327" data-name="Path 22327" d="M112.434,44.209H95.557l-5.115,8.636h-9l24.083-39.078h9.73l6.914,39.078h-8.309Zm-1.073-6.5-2.47-15.726L98.606,37.7Z" transform="translate(115.777 19.573)" fill="#00307d"/>
        <path id="Path_22328" data-name="Path 22328" d="M124.971,32.363h19.058L140.193,49.13a34.787,34.787,0,0,1-8.265,3.385,36.51,36.51,0,0,1-9.977,1.388q-7.9,0-12.113-3.281-5.754-4.475-5.754-12.98a25.233,25.233,0,0,1,2.473-10.929,22.676,22.676,0,0,1,8.422-9.757,23.47,23.47,0,0,1,12.84-3.465q7.378,0,11.837,3.146a15.065,15.065,0,0,1,5.914,9.171l-8.163.852a9.387,9.387,0,0,0-3.473-4.984A10.242,10.242,0,0,0,127.906,20a15.43,15.43,0,0,0-7.786,2.024,13.675,13.675,0,0,0-5.548,6.265,21.355,21.355,0,0,0-2.005,9.251q0,4.929,2.441,7.289t7.146,2.359a23.9,23.9,0,0,0,5.78-.734,27.438,27.438,0,0,0,5.112-1.744l1.308-5.812H123.491Z" transform="translate(147.97 19.18)" fill="#00307d"/>
        <path id="Path_22329" data-name="Path 22329" d="M124.487,52.845l8.89-39.078h31.576l-1.48,6.531h-22.8l-2.034,8.878h22.049L159.2,35.7H137.152l-2.673,10.609H159.26l-1.511,6.531Z" transform="translate(176.976 19.572)" fill="#00307d"/>
        <path id="Path_22330" data-name="Path 22330" d="M177.242,52.845h-8.163L157.574,26.589,151.59,52.845h-8.163l8.89-39.078h8.192l11.534,26.149L178,13.767h8.132Z" transform="translate(203.901 19.572)" fill="#00307d"/>
        <path id="Path_22331" data-name="Path 22331" d="M164.085,40.575l8.335-.4q.178,3.654,1.368,4.93,1.914,2.078,7.088,2.078,4.3,0,6.216-1.412a4.143,4.143,0,0,0,1.915-3.412,3.592,3.592,0,0,0-1.567-2.933,31.629,31.629,0,0,0-6.056-2.85,59.573,59.573,0,0,1-7.236-3.293,10.048,10.048,0,0,1-3.586-3.424,9.158,9.158,0,0,1-1.308-4.93,10.232,10.232,0,0,1,3.892-8.185q3.894-3.247,11.273-3.252,7.494,0,11.6,3.226a11.557,11.557,0,0,1,4.519,8.582l-8.4.349a6.1,6.1,0,0,0-2.206-4.294,8.887,8.887,0,0,0-5.579-1.492q-3.632,0-5.187,1.174a3.57,3.57,0,0,0-1.552,2.957,3.355,3.355,0,0,0,1.424,2.773,30.08,30.08,0,0,0,6.3,3.066q7.348,2.906,9.355,4.72A8.755,8.755,0,0,1,197.7,41.4a11.08,11.08,0,0,1-4.458,8.837Q188.78,53.9,180.817,53.9a24.449,24.449,0,0,1-9.515-1.693,11.038,11.038,0,0,1-5.676-4.705,13.3,13.3,0,0,1-1.54-6.931" transform="translate(233.26 19.18)" fill="#00307d"/>
        <path id="Path_22332" data-name="Path 22332" d="M471.368,42.364c0-6.713,5.88-11.977,5.88-18.085S467.426,13.212,461.66,12.3c-4.7-.743-6.466-12.3-6.466-12.3s-6.035,14.988-4.671,28.031S469.995,43.9,469.995,43.9L481.35,58.548c-12.607,2.855-17.034,18.24-17.494,22.042H0V94.405H473.441V80.59c-.111-14.639,11.6-18.349,11.6-18.349l7.323,7.793c-14.45,8.611-13.8,24.371-13.8,24.371H487.5a26.851,26.851,0,0,1,13.309-23.388Z" transform="translate(0 0.001)" fill="#00307d"/>
        <path id="Path_22333" data-name="Path 22333" d="M193.121,4.732s10.907,8.05,6.083,12.83c-6.844,6.778-5.4,12.21-3.526,17.189,0,0-4.219-1.564-6.124-3.778s-3.826-11.232,2.046-15.554c3.87-2.85,2.661-6.531,1.521-10.687" transform="translate(266.787 6.728)" fill="#fce400"/>
        <rect id="Rectangle_1601" data-name="Rectangle 1601" width="487.758" height="6.248" transform="translate(0 103.758)" fill="#00307d"/>
      </g>
    </g>
  </g>
</svg>
