<svg xmlns="http://www.w3.org/2000/svg" width="150" height="60" viewBox="0 0 381.152 160">
  <g id="portorico" transform="translate(2580.33 -1381.327)">
    <path id="Caminho_6509" data-name="Caminho 6509" d="M-1724.33,1689.9c-.258.962-.506,1.927-.774,2.885-1.868,6.666-6.334,10.638-12.911,12.421a46.963,46.963,0,0,1-12.674,1.213,30.891,30.891,0,0,1-9.569-1.227c-3.094-1.015-5.549-2.749-6.357-6.131a13.833,13.833,0,0,1,.558-7.111c1.971-6.877,6.81-10.623,13.56-12.177a53.049,53.049,0,0,1,16.086-.771,19.349,19.349,0,0,1,7.586,1.951,7.51,7.51,0,0,1,4.317,5.97c.009.071.116.13.177.194Zm-23.631,11.716a37.007,37.007,0,0,0,7.77-.6c4.984-.917,8.6-3.428,10-8.56,1.174-4.282-.427-7.091-4.726-8.121a27.159,27.159,0,0,0-4.686-.652,42.345,42.345,0,0,0-12.224.677c-4.519,1.046-7.908,3.394-9.173,8.179-1.094,4.141.168,6.737,4.21,8.084A25.844,25.844,0,0,0-1747.961,1701.613Z" transform="translate(-474.848 -173.612)" fill="#0f100e"/>
    <path id="Caminho_6510" data-name="Caminho 6510" d="M-2067.567,1703.216c-.565-.47-.442-.972-.151-1.557,2.671-5.371,5.313-10.755,7.982-16.127a10,10,0,0,0,.019-9.369c-2.648-5.351-5.264-10.718-7.9-16.077-.213-.433-.618-.9-.052-1.3.518-.363.831.137,1.146.459q8.731,8.895,17.455,17.8a4.968,4.968,0,0,1-.008,7.455q-8.743,9.022-17.514,18.017c-.244.251-.52.47-.781.7Z" transform="translate(-299.09 -161.89)" fill="#ca041b"/>
    <path id="Caminho_6511" data-name="Caminho 6511" d="M-2143.364,1437.233a55.946,55.946,0,0,1-58.946,55.787,55.806,55.806,0,0,1-52.91-58,55.7,55.7,0,0,1,58.84-53.629A55.778,55.778,0,0,1-2143.364,1437.233Zm-62.55-25.286q-12.033,0-24.066-.013c-.7,0-1.2.2-1.346.874s.322.981.883,1.241c1.765.816,3.514,1.667,5.265,2.512a23.044,23.044,0,0,0,10.323,2.363c9.878-.059,19.757-.017,29.635-.023a12.087,12.087,0,0,1,3.9.6,3.269,3.269,0,0,1,2.426,2.611,7.464,7.464,0,0,1-3.618,7.375,14.013,14.013,0,0,1-6.842,1.3c-10.11.042-20.221,0-30.331.048a8.418,8.418,0,0,0-7.95,5.932c-.645,1.971-1.265,3.95-1.882,5.93q-1.97,6.318-3.923,12.64c-.417,1.35-.042,2.063,1.2,2.094,2.252.057,4.509.071,6.761,0a2.449,2.449,0,0,0,2.427-2.3c.573-4.72,1.115-9.446,1.964-14.128.453-2.5,1.344-3.249,3.879-3.249,8.685,0,17.37.013,26.055-.008a25.976,25.976,0,0,0,8.768-1.387c7.391-2.64,11.579-9.66,11.255-15.771a7.9,7.9,0,0,0-4.431-7.007,17.151,17.151,0,0,0-8.18-1.635Q-2194.826,1411.941-2205.914,1411.947Zm13.091,31.348-.129.26c.437.394.9.767,1.309,1.185q7.919,8.021,15.821,16.058a3.7,3.7,0,0,0,2.979,1.263c1.652-.081,3.312-.028,4.968-.016.685.005,1.4,0,1.688-.738s-.222-1.235-.694-1.723q-5.7-5.887-11.383-11.785c-.928-.963-1.833-1.948-2.806-2.984,9.318-.673,14.046-7.816,14.642-12.55-.2.455-.354.815-.516,1.17a15.7,15.7,0,0,1-10.09,8.983,27.48,27.48,0,0,1-7.852.873C-2187.531,1443.311-2190.177,1443.3-2192.823,1443.3Z" transform="translate(-189.763 0)" fill="#ca021b"/>
    <path id="Caminho_6512" data-name="Caminho 6512" d="M-2300.932,1432.508c.634-.048,1.052.806.693,1.549-1.027,2.129-2.084,4.243-3.123,6.366-3.241,6.629-6.558,13.222-9.688,19.9a12.6,12.6,0,0,0,.014,11.076c4.1,8.653,8.317,17.253,12.484,25.876.128.266.251.534.364.806a.793.793,0,0,1-.315.95.7.7,0,0,1-.987.01,4.648,4.648,0,0,1-.509-.471q-13.241-13.806-26.673-27.428a7.291,7.291,0,0,1,.016-10.6q13.377-13.675,26.755-27.349A2.356,2.356,0,0,1-2300.932,1432.508Z" transform="translate(-145.576 -29.876)" fill="#ca041b"/>
    <path id="Caminho_6513" data-name="Caminho 6513" d="M-1954.214,1466.11a7.085,7.085,0,0,1-2.276,5.29q-13.3,13.686-26.616,27.354c-.385.4-.8.811-1.363.431-.672-.455-.434-1.081-.145-1.67,3.938-8.017,7.849-16.047,11.825-24.045a16.342,16.342,0,0,0,1.832-8.865,15.844,15.844,0,0,0-1.7-5.621q-5.92-12.012-11.815-24.038c-.086-.176-.141-.368-.236-.538a.931.931,0,0,1,.186-1.32c.534-.425.892-.07,1.26.306q4.941,5.039,9.891,10.068,8.443,8.633,16.871,17.283A7.13,7.13,0,0,1-1954.214,1466.11Z" transform="translate(-347.576 -30.104)" fill="#ca041b"/>
    <path id="Caminho_6514" data-name="Caminho 6514" d="M-2150.015,1707.3c-3.5-.077-7-.082-10.393-1.123-3.192-.981-5.889-2.59-6.777-6.084a13.644,13.644,0,0,1,.61-7.672c2.146-6.6,6.973-10.158,13.495-11.656a51.283,51.283,0,0,1,14.495-.882,23.863,23.863,0,0,1,8.466,1.659,7.858,7.858,0,0,1,5.048,6.1,14.762,14.762,0,0,1-.935,7.258c-2.246,6.565-7.14,10-13.667,11.475A49.731,49.731,0,0,1-2150.015,1707.3Zm1.816-4.9a31.416,31.416,0,0,0,7.939-.6c4.587-1.006,7.994-3.347,9.321-8.142,1.243-4.491-.264-7.169-4.754-8.37a26.761,26.761,0,0,0-5.872-.719,50.73,50.73,0,0,0-8.82.365,14.505,14.505,0,0,0-7.715,2.966,10.29,10.29,0,0,0-3.707,9.43c.272,2.519,2.3,3.6,4.513,4.284C-2154.436,1702.5-2151.49,1702.426-2148.2,1702.4Z" transform="translate(-240.985 -174.199)" fill="#0f100e"/>
    <path id="Caminho_6515" data-name="Caminho 6515" d="M-2454.085,1707.29c-4.094.034-8.185.035-12.14-1.287-3.081-1.03-5.454-2.79-6.206-6.126a14,14,0,0,1,.693-7.189c2.027-6.736,6.783-10.423,13.441-11.918a50.3,50.3,0,0,1,14-.887,28.8,28.8,0,0,1,8.232,1.417c3.712,1.338,6.487,4.225,5.79,9.539a17.747,17.747,0,0,1-5.37,11.025,19.645,19.645,0,0,1-9.389,4.53A41.545,41.545,0,0,1-2454.085,1707.29Zm.058-4.889a35.673,35.673,0,0,0,8.544-.592c4.72-1.013,8.159-3.49,9.517-8.354,1.158-4.148-.192-6.645-4.293-7.964a24.175,24.175,0,0,0-6.625-.917,51.79,51.79,0,0,0-8.616.369,14.533,14.533,0,0,0-7.958,3.094,10.223,10.223,0,0,0-3.58,9.189c.265,2.543,2.276,3.715,4.535,4.384A26.5,26.5,0,0,0-2454.027,1702.4Z" transform="translate(-62.852 -174.207)" fill="#0f100e"/>
    <path id="Caminho_6516" data-name="Caminho 6516" d="M-2353.193,1685.913c.338-1.216.623-2.325.958-3.418a1.763,1.763,0,0,1,1.879-1.39c8.714.03,17.429-.005,26.144.062a7.345,7.345,0,0,1,5.621,2.243c2.045,2.251,1.941,4.9,1.023,7.512-1.461,4.156-4.709,6.239-8.864,7.116-.762.161-1.535.264-2.446.418,1.625,1.957,3.161,3.807,4.7,5.659.569.687,1.159,1.359,1.7,2.07.486.643.282,1.247-.519,1.377a15.95,15.95,0,0,1-4.551.017,1.67,1.67,0,0,1-1.015-.74c-2.2-2.6-4.4-5.2-6.58-7.819a1.168,1.168,0,0,0-1.008-.471q-7.257.016-14.514,0c-.647,0-.9.229-1.054.867-.524,2.162-1.142,4.3-1.708,6.453-.419,1.6-.689,1.824-2.3,1.831-.563,0-1.127.016-1.69,0-1.15-.039-1.451-.35-1.182-1.476.693-2.9,1.368-5.8,2.215-8.655a5.5,5.5,0,0,1,5.375-3.9c6.958-.031,13.917,0,20.875-.032a22.271,22.271,0,0,0,4.436-.364,4.616,4.616,0,0,0,3.429-4.793,2.622,2.622,0,0,0-2.242-2.317,9.75,9.75,0,0,0-2.26-.246q-12.625.017-25.25.007Z" transform="translate(-129.379 -174.993)" fill="#0f100e"/>
    <path id="Caminho_6517" data-name="Caminho 6517" d="M-2008.225,1685.921c.35-1.25.665-2.417,1.006-3.577a1.56,1.56,0,0,1,1.672-1.225c8.782.02,17.564.007,26.345.048a8.523,8.523,0,0,1,4.142,1.132,6.28,6.28,0,0,1,2.929,6.97,12.169,12.169,0,0,1-10.324,9.556,3.2,3.2,0,0,1-1.353.2c-.1.379.186.512.348.689,1.88,2.05,3.773,4.088,5.649,6.141.3.326.75.643.511,1.186a1.166,1.166,0,0,1-1.163.6c-1.19.03-2.381.034-3.572.035a2.233,2.233,0,0,1-1.7-.862c-2.133-2.356-4.294-4.687-6.429-7.042a1.424,1.424,0,0,0-1.172-.549c-4.771.026-9.544.034-14.315,0a1.169,1.169,0,0,0-1.345,1.063c-.454,1.876-.971,3.737-1.456,5.605-.369,1.423-.809,1.788-2.253,1.818-.53.011-1.061.01-1.591,0-1.353-.024-1.638-.4-1.3-1.724q.575-2.234,1.186-4.457c.568-2.082,1.225-4.145,1.686-6.25.2-.911.6-1.026,1.389-1.024q12.279.035,24.556,0c1.985-.006,3.988-.13,5.622-1.466a4.87,4.87,0,0,0,1.675-4.8c-.181-1.149-1.213-1.575-2.231-1.842a8.855,8.855,0,0,0-2.261-.229C-1990.691,1685.925-1999.405,1685.921-2008.225,1685.921Z" transform="translate(-330.749 -175.002)" fill="#0f100e"/>
    <path id="Caminho_6518" data-name="Caminho 6518" d="M-2574.694,1685.912c.277-1.152.51-2.24.8-3.31a1.784,1.784,0,0,1,1.9-1.5c8.715.032,17.43,0,26.144.059a8.13,8.13,0,0,1,5.081,1.622c2.222,1.75,2.523,4.146,1.976,6.706-1.07,5.014-5.031,7.927-9.9,8.745a37.5,37.5,0,0,1-6.241.318c-5.567,0-11.134-.012-16.7.019-.495,0-1.1-.4-1.431-.029a3.578,3.578,0,0,0-.454,1.483q-.709,2.91-1.4,5.823c-.332,1.387-.832,1.8-2.259,1.842-.629.017-1.26.028-1.888,0-1.178-.061-1.444-.429-1.161-1.583q.457-1.859.945-3.711c.389-1.487.735-2.988,1.2-4.453a5.98,5.98,0,0,1,5.768-4.287c6.494-.034,12.989-.017,19.484-.018a31.669,31.669,0,0,0,5.53-.375c2.932-.519,3.718-3.2,3.361-5.28-.2-1.155-1.217-1.579-2.234-1.845a8.491,8.491,0,0,0-2.16-.232q-12.625.017-25.25.007Z" transform="translate(0 -174.993)" fill="#0f100e"/>
    <path id="Caminho_6519" data-name="Caminho 6519" d="M-1854.241,1706.478a34.746,34.746,0,0,1-11.131-1.424c-3.309-1.126-5.7-3.132-6.174-6.819a15.412,15.412,0,0,1,.833-6.513c2-6.52,6.619-10.164,13.06-11.694a48.878,48.878,0,0,1,14.268-1.088,40.688,40.688,0,0,1,9.543,1.474,11.973,11.973,0,0,1,3.345,1.637c.545.378.8.749.049,1.238a9.057,9.057,0,0,0-1.679,1.942,1.608,1.608,0,0,1-2,.56,38.509,38.509,0,0,0-15.274-2.134,28.355,28.355,0,0,0-10.073,1.718,10.345,10.345,0,0,0-6.544,8.593c-.525,3.4.444,4.962,3.575,6.385a12.583,12.583,0,0,0,3.614.918,52.681,52.681,0,0,0,20.872-1.651c1.621-.441,1.8-.335,2.159,1.248.452,2,.3,2.336-1.639,2.968a50.953,50.953,0,0,1-10.275,2.256A57.568,57.568,0,0,1-1854.241,1706.478Z" transform="translate(-413.697 -173.668)" fill="#0f100e"/>
    <path id="Caminho_6520" data-name="Caminho 6520" d="M-2233.03,1681.1q7.456,0,14.911,0c1.343,0,1.621.344,1.25,1.608-.966,3.288-.628,3.221-4.18,3.191-3.082-.027-6.164.026-9.245-.028a1.054,1.054,0,0,0-1.228.931q-2.48,9.447-4.982,18.889c-.445,1.687-.808,1.977-2.531,1.987-.563,0-1.129.025-1.69-.011-1.108-.07-1.392-.454-1.119-1.539.312-1.237.664-2.464,1-3.7q2.121-7.764,4.25-15.525c.2-.743.116-1.045-.778-1.034-3.876.046-7.754.02-11.631.02-1.406,0-1.528-.209-1.284-1.565.689-3.834,1.084-3.207,4.033-3.224C-2241.844,1681.084-2237.437,1681.1-2233.03,1681.1Z" transform="translate(-192.603 -174.979)" fill="#0f100e"/>
    <path id="Caminho_6521" data-name="Caminho 6521" d="M-1896.258,1680.623q-3.278,12.267-6.556,24.535a1.669,1.669,0,0,1-1.762,1.4c-.762-.007-1.524.02-2.285,0-1.065-.033-1.338-.414-1.057-1.472.538-2.021,1.1-4.037,1.639-6.059q2.349-8.817,4.693-17.635a9.267,9.267,0,0,1,.393-1c1.064-.843,2.318-.441,3.5-.537A1.33,1.33,0,0,1-1896.258,1680.623Z" transform="translate(-392.455 -174.255)" fill="#0f100e"/>
    <path id="Caminho_6522" data-name="Caminho 6522" d="M-1886.683,1674.639a1.33,1.33,0,0,0-1.438-.769c-1.179.1-2.433-.306-3.5.537a34.99,34.99,0,0,1,.912-3.592,1.241,1.241,0,0,1,.709-.894,6.71,6.71,0,0,1,3.977-.062c.606.162.416.778.316,1.193C-1885.995,1672.257-1886.352,1673.445-1886.683,1674.639Z" transform="translate(-402.03 -168.271)" fill="#ca041b"/>
    <path id="Caminho_6523" data-name="Caminho 6523" d="M-2105.459,1514.729c2.646,0,5.292.016,7.938,0a27.484,27.484,0,0,0,7.852-.873,15.7,15.7,0,0,0,10.09-8.983c.162-.355.315-.714.516-1.17-.6,4.734-5.324,11.877-14.642,12.55.973,1.036,1.878,2.021,2.805,2.984q5.684,5.9,11.383,11.785c.472.488.984.993.694,1.723s-1,.743-1.688.738c-1.656-.012-3.315-.065-4.968.016a3.7,3.7,0,0,1-2.979-1.263q-7.9-8.041-15.821-16.058c-.413-.418-.872-.791-1.309-1.185Z" transform="translate(-277.127 -71.433)" fill="#ffe42f"/>
  </g>
</svg>
