<svg xmlns="http://www.w3.org/2000/svg" width="150" height="60" viewBox="0 0 500 98.233"><g transform="translate(-97.615 -66.405)"><path d="M299.843,139.3h-7.815l8.128-38.021h15.631a17.9,17.9,0,0,1,6.643,1.094A8.1,8.1,0,0,1,326.1,105.7a8.917,8.917,0,0,1,1.446,5.432,14.811,14.811,0,0,1-1.095,5.548,12.788,12.788,0,0,1-2.578,4.416,20.347,20.347,0,0,1-3.321,2.578,9.771,9.771,0,0,1-5.159,1.094c-1.094,0-3.672.352-6.994.352h-5.237Zm4.416-20.671h2.578a32.559,32.559,0,0,0,8.128-.742,5.9,5.9,0,0,0,3.322-2.579,6.257,6.257,0,0,0,1.094-3.673,3.9,3.9,0,0,0-.743-2.227,2.032,2.032,0,0,0-1.836-1.095,14.079,14.079,0,0,0-4.806-.352h-5.51Z" transform="translate(-19.509 -3.499)" fill="#00347c"/><path d="M339.63,139.3h-7.815l8.127-38.021h17a27.339,27.339,0,0,1,6.643.742,11.727,11.727,0,0,1,3.908,3.322,10.091,10.091,0,0,1,1.68,5.784,12.147,12.147,0,0,1-2.97,8.127,14.264,14.264,0,0,1-8.87,3.908,16.117,16.117,0,0,1,2.97,3.672,82.31,82.31,0,0,1,5.9,12.544h-8.479a70.4,70.4,0,0,0-3.908-9.965,10.62,10.62,0,0,0-3.322-4.806,9.877,9.877,0,0,0-3.907-.743h-3.322Zm4.415-21.414h3.907a39.1,39.1,0,0,0,8.48-.742,5.391,5.391,0,0,0,3.321-2.228,5.94,5.94,0,0,0,1.095-3.322,2.932,2.932,0,0,0-1.837-2.97,10.583,10.583,0,0,0-4.415-.742h-8.324Z" transform="translate(-23.502 -3.5)" fill="#00347c"/><path d="M374.989,124.449a23.159,23.159,0,0,1,1.094-6.995,24.337,24.337,0,0,1,3.907-8.871,18.251,18.251,0,0,1,7.268-5.9,18.954,18.954,0,0,1,9.222-2.228,15.278,15.278,0,0,1,11.449,4.415,15.631,15.631,0,0,1,4.415,11.722,27.892,27.892,0,0,1-2.97,11.723,19.3,19.3,0,0,1-7.815,8.479,22.542,22.542,0,0,1-11.059,2.97,13.32,13.32,0,0,1-8.87-2.579,13.123,13.123,0,0,1-5.159-5.9A23.835,23.835,0,0,1,374.989,124.449Zm7.815-.352a10.314,10.314,0,0,0,2.227,6.643,7.814,7.814,0,0,0,6.136,2.578,9.062,9.062,0,0,0,5.9-2.227,14.228,14.228,0,0,0,4.807-6.291,23.45,23.45,0,0,0,1.836-8.128,9.185,9.185,0,0,0-2.578-6.995,7.818,7.818,0,0,0-6.057-2.54,10.98,10.98,0,0,0-9.221,5.159,26.632,26.632,0,0,0-3.126,11.8Z" transform="translate(-27.834 -3.415)" fill="#00347c"/><path d="M436.908,118.854h17l-3.322,16.255a27.577,27.577,0,0,1-7.385,3.283,36.99,36.99,0,0,1-8.871,1.484,14.889,14.889,0,0,1-10.707-3.321,15.868,15.868,0,0,1-5.158-12.544,26.484,26.484,0,0,1,2.228-10.707,24.722,24.722,0,0,1,7.385-9.613,19.892,19.892,0,0,1,11.449-3.322,19.27,19.27,0,0,1,10.707,2.97,15.638,15.638,0,0,1,5.159,8.871l-7.386.742a11.714,11.714,0,0,0-2.97-4.806,8.908,8.908,0,0,0-5.548-1.485,15.293,15.293,0,0,0-6.995,1.836,12.039,12.039,0,0,0-4.807,6.448,23.77,23.77,0,0,0-1.836,8.871,9.413,9.413,0,0,0,2.228,6.76,8.674,8.674,0,0,0,6.291,2.228,24.967,24.967,0,0,0,5.158-.742,12.321,12.321,0,0,0,4.416-1.837l1.094-5.549h-9.573Z" transform="translate(-32.195 -3.408)" fill="#00347c"/><path d="M467.241,139.3h-7.815l8.127-38.021h17a27.339,27.339,0,0,1,6.643.742,11.726,11.726,0,0,1,3.908,3.322,10.084,10.084,0,0,1,1.68,5.784,12.147,12.147,0,0,1-2.97,8.127,14.264,14.264,0,0,1-8.87,3.908,16.117,16.117,0,0,1,2.97,3.672,82.307,82.307,0,0,1,5.9,12.544h-8.479a70.282,70.282,0,0,0-3.908-9.965,10.626,10.626,0,0,0-3.634-4.494,9.9,9.9,0,0,0-3.907-.742h-3.322Zm4.415-21.414h3.907a39.1,39.1,0,0,0,8.48-.742,5.4,5.4,0,0,0,3.517-2.111,5.947,5.947,0,0,0,1.094-3.322,2.93,2.93,0,0,0-1.837-2.97A10.583,10.583,0,0,0,482.4,108h-8.518Z" transform="translate(-36.307 -3.5)" fill="#00347c"/><path d="M500.515,139.3l8.127-38.021h27.979l-1.485,6.291h-20.32l-1.641,8.479h19.538l-1.484,6.291H511.69l-2.423,10.316h22.157l-1.485,6.291H500.515Z" transform="translate(-40.43 -3.5)" fill="#00347c"/><path d="M536.3,126.968l7.385-.352a7.819,7.819,0,0,0,1.094,4.806c1.095,1.485,3.322,1.837,6.291,1.837a7.811,7.811,0,0,0,5.549-1.485,3.907,3.907,0,0,0,1.837-3.322,3.363,3.363,0,0,0-1.485-2.97,31.264,31.264,0,0,0-5.549-2.97,27.349,27.349,0,0,1-6.643-3.322,7.223,7.223,0,0,1-3.321-3.322,10.185,10.185,0,0,1-1.25-4.923,10.862,10.862,0,0,1,3.321-8.128A13.523,13.523,0,0,1,553.5,99.5a15.127,15.127,0,0,1,10.356,3.322,11.724,11.724,0,0,1,3.907,8.48l-7.385.352a6.016,6.016,0,0,0-1.837-3.908,7.225,7.225,0,0,0-5.158-1.484,8.357,8.357,0,0,0-4.806,1.094,3.634,3.634,0,0,0-.763,5.082,3.554,3.554,0,0,0,.411.466,17.262,17.262,0,0,0,5.548,2.97,40.787,40.787,0,0,1,8.48,4.416,8.906,8.906,0,0,1,2.578,6.642,11.018,11.018,0,0,1-3.907,8.48,16.609,16.609,0,0,1-11.058,3.673,19.545,19.545,0,0,1-8.479-1.485,12.264,12.264,0,0,1-5.08-4.377C536.969,131.736,536.3,129.156,536.3,126.968Z" transform="translate(-44.022 -3.317)" fill="#00347c"/><path d="M572.747,126.982l7.385-.352a7.811,7.811,0,0,0,1.094,4.806c1.094,1.485,3.322,1.837,6.291,1.837a7.811,7.811,0,0,0,5.549-1.485,3.908,3.908,0,0,0,1.836-3.322,3.361,3.361,0,0,0-1.484-2.97,31.262,31.262,0,0,0-5.549-2.97,27.332,27.332,0,0,1-6.643-3.322,7.228,7.228,0,0,1-3.321-3.322,10.193,10.193,0,0,1-1.094-4.806,10.863,10.863,0,0,1,3.322-8.127,13.517,13.517,0,0,1,9.964-3.322,15.115,15.115,0,0,1,10.355,3.322,11.721,11.721,0,0,1,3.907,8.479l-7.385.352a6.017,6.017,0,0,0-1.836-3.908,7.231,7.231,0,0,0-5.158-1.484,8.359,8.359,0,0,0-4.807,1.094,3.638,3.638,0,0,0-.352,5.549A17.284,17.284,0,0,0,590.37,116a40.779,40.779,0,0,1,8.479,4.415,8.91,8.91,0,0,1,2.579,6.643,11.021,11.021,0,0,1-3.908,8.479,16.607,16.607,0,0,1-11.058,3.673,19.532,19.532,0,0,1-8.479-1.485,12.263,12.263,0,0,1-5.158-4.415A35.255,35.255,0,0,0,572.747,126.982Z" transform="translate(-47.679 -3.33)" fill="#00347c"/><path d="M612.14,124.449a23.182,23.182,0,0,1,1.094-6.995,24.338,24.338,0,0,1,3.908-8.871,18.242,18.242,0,0,1,6.994-5.9,18.956,18.956,0,0,1,9.222-2.228,15.276,15.276,0,0,1,11.449,4.415,15.629,15.629,0,0,1,4.416,11.722,27.907,27.907,0,0,1-2.971,11.723,19.3,19.3,0,0,1-7.814,8.479,22.542,22.542,0,0,1-11.059,2.97,13.321,13.321,0,0,1-8.871-2.579,13.129,13.129,0,0,1-5.159-5.9A15.986,15.986,0,0,1,612.14,124.449Zm7.815-.352a10.322,10.322,0,0,0,2.11,6.486,7.817,7.817,0,0,0,6.291,2.579,9.066,9.066,0,0,0,5.9-2.228,14.225,14.225,0,0,0,4.807-6.291,23.458,23.458,0,0,0,1.836-8.127,9.18,9.18,0,0,0-2.579-6.995,7.812,7.812,0,0,0-6.291-2.579,10.979,10.979,0,0,0-9.221,5.158,26.652,26.652,0,0,0-2.931,12Z" transform="translate(-51.63 -3.415)" fill="#00347c"/><path d="M251.949,146.078s24.071-14.38,13.286-44.664a41.969,41.969,0,0,0-28.291-21.023L231.278,91.45H201.033l39.076,63.108a72.583,72.583,0,0,0,8.557-5.9L218.383,100.32l16.608,2.228,4.806-8.871a26.921,26.921,0,0,1,14.77,25.087,25.006,25.006,0,0,1-8.479,18.444c0,.352,5.9,8.871,5.9,8.871" transform="translate(-10.378 -1.403)" fill="#00347c"/><path d="M228.485,79.118l-3.673,8.128s-29.893-1.094-32.862,2.97c0,.352,40.248,64.984,40.248,64.984a35.626,35.626,0,0,1-9.221,5.9L181.633,95.374a37.63,37.63,0,0,0-21.414,40.6l-11.1,6.291a46.267,46.267,0,0,1,20.671-51.7S184.211,77.633,228.485,79.118Z" transform="translate(-5.006 -1.264)" fill="#00347c"/><path d="M172.264,109.147a46.227,46.227,0,0,1,7.385-6.995l39.857,62.521S177.07,178.7,153.819,151l9.965-5.9a46.89,46.89,0,0,0,37.669,12.933Z" transform="translate(-5.64 -3.587)" fill="#00347c"/><path d="M97.615,66.405l40.6,63.5a52.628,52.628,0,0,1,3.321-19.928c0,.352-27.353-43.57-27.353-43.57Z" transform="translate(0 0)" fill="#2c88cb"/><path d="M162.463,66.405l10.668,17.78a76.824,76.824,0,0,1,14.379-5.158L179.7,66.483Z" transform="translate(-6.507 0)" fill="#2c88cb"/><path d="M230.568,66.405l6.643,8.871s15.865,3.673,19.187,8.87c-.352.352-9.613-17.7-9.613-17.7Z" transform="translate(-13.342 0)" fill="#2c88cb"/></g></svg>