<svg xmlns="http://www.w3.org/2000/svg" width="150" height="60" viewBox="0 0 500 106.953"><g transform="translate(-130.307 -68.552)"><path d="M386.887,121.506l-5.508,16.367-7.773-16.641v-.117H359.817v.117l-11.25,34.062h14.18l5.234-16.367,7.656,16.641H389.7l10.859-34.062Z" transform="translate(4.279 1.031)" fill="#003885"/><path d="M463.127,122.042l-5.469,16.367-7.812-16.641v-.117H436.057v.117l-11.25,34.062h14.18l5.234-16.367,7.656,16.641H465.94L476.8,122.042Z" transform="translate(5.774 1.041)" fill="#003885"/><path d="M279.649,114.794H242.618l-3.047,12.07H249.61l-8.867,28.555h17.031l8.867-28.555h9.375Z" transform="translate(2.142 0.907)" fill="#003885"/><path d="M590.445,122.188h-30.2l-2.656,9.766h8.32l-7.266,23.32h13.945l7.227-23.32h7.656Z" transform="translate(8.377 1.052)" fill="#003885"/><path d="M618.633,129.688l2.813-7.5H592.774l-2.422,7.5-2.969,9.648-.781,2.656h0l-1.758,5.781h-.117l-2.422,7.5h.117l-.117.43h28.008l2.7-7.93H598.789l1.719-5.781h13.945l2.852-7.617H602.93l1.367-4.688Z" transform="translate(8.862 1.052)" fill="#003885"/><path d="M310.659,131.43A10.312,10.312,0,0,0,300.464,121H280.385L269.8,155.063h13.828l2.656-10.625h1.875l4.571,11.406h13.828l-5.195-14.219h0A10.157,10.157,0,0,0,310.659,131.43Zm-16.875,4.961H290.15l1.211-5.625h2.422a2.813,2.813,0,0,1,2.813,2.812h0a2.736,2.736,0,0,1-2.654,2.813h-.159Z" transform="translate(2.735 1.028)" fill="#003885"/><path d="M555.586,131.963a10.313,10.313,0,0,0-10.312-10.312H525.117L514.57,155.674H528.4l2.7-10.7h1.836l4.57,11.406h13.828l-5.508-14.062h0A10.39,10.39,0,0,0,555.586,131.963Zm-16.875,4.961h-3.633l1.21-5.625h2.423a2.813,2.813,0,0,1,2.812,2.813h0a2.657,2.657,0,0,1-2.493,2.81l-.046,0Z" transform="translate(7.534 1.041)" fill="#003885"/><path d="M348.155,155.556l-2.969-33.79H328.194l-22.382,34.375h13.007l3.36-5.508h12.227v5.079h13.828ZM326.75,143.211l7.5-11.914v11.914Z" transform="translate(3.441 1.043)" fill="#003885"/><path d="M425.956,131.861l6.562-7.813A23.006,23.006,0,0,0,421.7,121a25.2,25.2,0,0,0-16.211,4.8s-8.712,6.719-5.2,13.281c0,0,1.719,3.477,10.587,3.2,0,0,3.906-.273,3.359,1.875,0,0-1.054,3.906-7.109,2.539a28.8,28.8,0,0,1-7.5-2.969l-7.5,9.1s13.4,5.9,23.438,1.992c0,0,10.312-4.336,11.718-9.649,0,0,3.086-10.86-7.812-11.133,0,0-4.96,0-5.352-2.266,0,0-.391-2.539,4.141-2.148A16.4,16.4,0,0,1,425.956,131.861Z" transform="translate(5.133 1.028)" fill="#003885"/><path d="M499.986,120.464c-12.188.547-23.868,8.593-26.134,18.086s5.9,17.148,17.968,17.148,23.907-8.047,26.134-18.124S512.173,120.074,499.986,120.464Zm-5.625,24.375c-4.571,0-7.813-2.812-6.836-6.562a10.43,10.43,0,0,1,9.922-6.836c4.571,0,7.813,2.813,6.836,6.562A10.469,10.469,0,0,1,494.361,144.839Z" transform="translate(6.728 1.017)" fill="#003885"/><path d="M138.354,68.552l-8.047,22.226h46.875L151.089,175.5h54.961s-44.493-59.219-1.523-106.953Z" fill="#003885"/><path d="M207.056,172.417l26.406-79.493h47.071l5.625-24.257S172.485,91.049,207.056,172.417Z" transform="translate(1.376 0.002)" fill="#a3ddf2"/></g></svg>